<?xml version="1.0" encoding="utf-8"?>
<!-- Generator: Adobe Illustrator 15.0.0, SVG Export Plug-In . SVG Version: 6.00 Build 0)  -->
<!DOCTYPE svg PUBLIC "-//W3C//DTD SVG 1.1//EN" "http://www.w3.org/Graphics/SVG/1.1/DTD/svg11.dtd">
<svg version="1.1" id="Layer_1" xmlns="http://www.w3.org/2000/svg" xmlns:xlink="http://www.w3.org/1999/xlink" x="0px" y="0px"
	 width="683.68px" height="713.61px" viewBox="0 0 683.68 713.61" style="enable-background:new 0 0 683.68 713.61;"
	 xml:space="preserve">
<style type="text/css">
<![CDATA[
	.st0{fill:none;stroke:#2BABD9;stroke-width:2;stroke-miterlimit:10;}
	.st1{fill:#46B4DB;}
	.st2{fill:#7AB849;}
	.st3{fill:none;stroke:#46B4DB;stroke-width:2;stroke-miterlimit:10;stroke-dasharray:2.0028,3.0041;}
	.st4{fill:none;stroke:#46B4DB;stroke-width:2;stroke-miterlimit:10;stroke-dasharray:2,3;}
	.st5{fill:#ADADAD;}
	.st6{fill:none;stroke:#9D9D9D;stroke-width:0.25;stroke-miterlimit:10;}
	.st7{fill:none;stroke:#1D6282;stroke-miterlimit:10;}
	.st8{fill:none;stroke:#62808C;stroke-width:1.5;stroke-miterlimit:10;}
	.st9{fill:none;stroke:#4FCBF7;stroke-width:1.7432;stroke-linecap:round;stroke-linejoin:round;stroke-miterlimit:10;}
	.st10{fill:none;stroke:#F37D37;stroke-width:2;stroke-miterlimit:10;}
	.st11{fill:#E6E6E6;}
	.st12{fill:none;stroke:#D8D8D8;stroke-width:2.217;stroke-miterlimit:10;}
	.st13{fill:none;stroke:#028CB9;stroke-width:1.7432;stroke-linecap:round;stroke-linejoin:round;stroke-miterlimit:10;}
	.st14{fill:none;stroke:#FFFFFF;stroke-width:2;stroke-miterlimit:10;}
	.st15{fill:#808080;}
	.st16{fill:none;stroke:#C4C4C4;stroke-miterlimit:10;}
	.st17{fill:#EDEDED;}
	.st18{fill:none;stroke:#46B4DB;stroke-width:3;stroke-miterlimit:10;}
	.st19{fill:#8ABD53;}
	.st20{fill:#F5F5F5;}
	.st21{fill:none;stroke:#C4C4C4;stroke-width:2;stroke-miterlimit:10;}
	.st22{fill:none;stroke:#5F7C87;stroke-width:1.7432;stroke-linecap:round;stroke-linejoin:round;}
	.st23{fill:none;stroke:#D8D8D8;stroke-width:2;stroke-miterlimit:10;}
	.st24{fill:none;stroke:#46B4DB;stroke-width:1.645;stroke-linecap:round;stroke-linejoin:round;stroke-miterlimit:10;}
	.st25{fill:none;stroke:#46B4DB;stroke-width:2;stroke-miterlimit:10;}
	.st26{fill:#969696;}
	.st27{fill:none;stroke:#46B4DB;stroke-width:1.4;stroke-linecap:round;stroke-linejoin:round;stroke-miterlimit:10;}
	.st28{fill:none;stroke:#769AA8;stroke-width:2;stroke-miterlimit:10;}
	.st29{fill:#FFFFFF;}
	.st30{fill:none;stroke:#2886B3;stroke-miterlimit:10;}
	.st31{fill:none;stroke:#C4C4C4;stroke-width:2;stroke-linejoin:round;stroke-miterlimit:10;}
	.st32{fill:#CCCCCC;}
	.st33{fill:none;stroke:#5F7C87;stroke-width:1.7432;stroke-linecap:round;stroke-linejoin:round;stroke-dasharray:2.922,2.922;}
	.st34{fill:none;stroke:#C3C3C3;stroke-width:2.5;stroke-linejoin:round;stroke-miterlimit:10;}
	.st35{fill:#37C2A1;}
	.st36{fill:none;stroke:#92A1A8;stroke-width:2;stroke-miterlimit:10;}
	.st37{fill:#008BBD;}
	.st38{fill:none;stroke:#5F7C87;stroke-width:1.7432;stroke-linecap:round;stroke-linejoin:round;stroke-miterlimit:10;}
	.st39{fill:none;stroke:#BFBFBF;stroke-width:2;stroke-miterlimit:10;}
	.st40{fill:none;stroke:#46B4DB;stroke-width:1.8285;stroke-linecap:round;stroke-linejoin:round;stroke-miterlimit:10;}
	.st41{fill:none;stroke:#008BBD;stroke-width:1.7432;stroke-linecap:round;stroke-linejoin:round;stroke-miterlimit:10;}
	.st42{fill:#757878;}
]]>
</style>
<g id="flush-libs_x3E_flush-rebuild">
	<g>
		
			<rect x="55.554" y="44.299" transform="matrix(0.9194 0.3933 -0.3933 0.9194 22.7677 -18.8519)" class="st39" width="3.656" height="3.656"/>
		<polygon class="st39" points="44.583,42.469 48.238,42.469 48.466,46.125 44.811,46.125 		"/>
		
			<rect x="32.375" y="40.64" transform="matrix(0.9805 -0.1966 0.1966 0.9805 -7.6818 7.5534)" class="st39" width="3.656" height="3.655"/>
		
			<rect x="16.726" y="42.471" transform="matrix(0.9885 -0.1509 0.1509 0.9885 -6.4727 3.3075)" class="st39" width="3.656" height="3.655"/>
		
			<rect x="54.366" y="32.613" transform="matrix(0.9961 0.0882 -0.0882 0.9961 3.2548 -4.8195)" class="st39" width="3.656" height="3.656"/>
		<rect x="43.587" y="29.994" class="st39" width="3.654" height="3.656"/>
		
			<rect x="32.379" y="29.978" transform="matrix(0.9987 -0.0514 0.0514 0.9987 -1.5897 1.8004)" class="st39" width="3.657" height="3.656"/>
		
			<rect x="22.002" y="32.609" transform="matrix(0.9924 -0.1231 0.1231 0.9924 -4.0579 3.1954)" class="st39" width="3.657" height="3.656"/>
		<rect x="51.044" y="20.565" class="st39" width="3.656" height="3.655"/>
		<rect x="42.375" y="20.565" class="st39" width="3.655" height="3.655"/>
		<rect x="33.705" y="20.565" class="st39" width="3.656" height="3.655"/>
		<rect x="25.036" y="20.565" class="st39" width="3.656" height="3.655"/>
		<rect x="51.044" y="11.577" class="st39" width="3.656" height="3.656"/>
		<rect x="42.375" y="11.577" class="st39" width="3.655" height="3.656"/>
		<rect x="33.705" y="11.577" class="st39" width="3.656" height="3.656"/>
		<rect x="25.036" y="11.577" class="st39" width="3.656" height="3.656"/>
	</g>
</g>
<g id="rebuild-deploy_x3E_flush-rebuild">
	<g>
		<line class="st39" x1="126.693" y1="48.817" x2="120.693" y2="48.817"/>
		<line class="st39" x1="114.361" y1="48.817" x2="101.871" y2="48.817"/>
		<line class="st39" x1="146.242" y1="48.816" x2="132.958" y2="48.817"/>
		<line class="st39" x1="111.195" y1="51.816" x2="111.196" y2="60.552"/>
		<line class="st39" x1="111.195" y1="45.684" x2="111.195" y2="39.684"/>
		<line class="st39" x1="111.195" y1="21.22" x2="111.196" y2="11.963"/>
		<line class="st39" x1="111.195" y1="33.353" x2="111.195" y2="27.354"/>
		<line class="st39" x1="123.527" y1="51.817" x2="123.526" y2="62.518"/>
		<line class="st39" x1="123.526" y1="45.684" x2="123.526" y2="39.684"/>
		<line class="st39" x1="123.527" y1="21.22" x2="123.526" y2="9.8"/>
		<line class="st39" x1="123.526" y1="33.353" x2="123.525" y2="27.353"/>
		<line class="st39" x1="129.66" y1="39.552" x2="129.66" y2="33.552"/>
		<line class="st39" x1="129.66" y1="27.22" x2="129.659" y2="8.216"/>
		<line class="st39" x1="129.66" y1="45.817" x2="129.66" y2="64.04"/>
		<line class="st39" x1="135.791" y1="51.817" x2="135.791" y2="60.552"/>
		<line class="st39" x1="135.791" y1="45.684" x2="135.79" y2="39.684"/>
		<line class="st39" x1="135.791" y1="21.221" x2="135.79" y2="11.963"/>
		<line class="st39" x1="135.79" y1="33.353" x2="135.79" y2="27.354"/>
		<line class="st39" x1="138.791" y1="30.353" x2="144.669" y2="30.353"/>
		<line class="st39" x1="132.658" y1="30.353" x2="126.658" y2="30.354"/>
		<line class="st39" x1="108.195" y1="30.353" x2="95.633" y2="30.353"/>
		<line class="st39" x1="120.328" y1="30.353" x2="114.328" y2="30.353"/>
		<line class="st39" x1="138.791" y1="42.685" x2="144.669" y2="42.684"/>
		<line class="st39" x1="132.658" y1="42.684" x2="126.658" y2="42.684"/>
		<line class="st39" x1="108.195" y1="42.684" x2="95.633" y2="42.684"/>
		<line class="st39" x1="120.327" y1="42.684" x2="114.328" y2="42.684"/>
		<line class="st39" x1="117.328" y1="39.551" x2="117.328" y2="33.552"/>
		<line class="st39" x1="117.328" y1="27.22" x2="117.328" y2="8.215"/>
		<line class="st39" x1="117.328" y1="64.04" x2="117.328" y2="45.817"/>
		<line class="st39" x1="126.693" y1="24.221" x2="120.692" y2="24.221"/>
		<line class="st39" x1="114.361" y1="24.22" x2="101.871" y2="24.221"/>
		<line class="st39" x1="148.048" y1="24.22" x2="132.958" y2="24.221"/>
		<line class="st39" x1="126.693" y1="36.484" x2="120.693" y2="36.484"/>
		<line class="st39" x1="114.362" y1="36.485" x2="87.256" y2="36.484"/>
		<line class="st39" x1="153.484" y1="36.484" x2="132.958" y2="36.484"/>
		<polyline class="st39" points="148.185,44.469 152.532,48.817 148.184,53.165 		"/>
		<polyline class="st39" points="153.167,32.003 157.515,36.35 153.167,40.698 		"/>
		<polyline class="st39" points="149.324,19.913 153.671,24.26 149.324,28.608 		"/>
	</g>
</g>
<g id="flush-and-rebuild_x3E_flush-rebuild">
	<g>
		<rect x="201.524" y="40.699" class="st39" width="3.656" height="3.656"/>
		<rect x="190.745" y="38.085" class="st39" width="3.655" height="3.655"/>
		<rect x="179.537" y="38.071" class="st39" width="3.656" height="3.656"/>
		<rect x="198.202" y="28.656" class="st39" width="3.656" height="3.655"/>
		<rect x="189.533" y="28.656" class="st39" width="3.655" height="3.655"/>
		<rect x="180.863" y="28.656" class="st39" width="3.656" height="3.655"/>
		<rect x="198.202" y="19.669" class="st39" width="3.656" height="3.656"/>
		<rect x="189.533" y="19.669" class="st39" width="3.655" height="3.656"/>
		<rect x="180.863" y="19.669" class="st39" width="3.656" height="3.656"/>
		<line class="st39" x1="270.048" y1="49.669" x2="270.048" y2="33.356"/>
		<line class="st39" x1="270.048" y1="27.025" x2="270.047" y2="11.101"/>
		<line class="st39" x1="276.182" y1="33.224" x2="276.182" y2="27.224"/>
		<line class="st39" x1="276.182" y1="20.892" x2="276.181" y2="9.517"/>
		<line class="st39" x1="276.182" y1="39.489" x2="276.182" y2="51.191"/>
		<line class="st39" x1="282.313" y1="47.701" x2="282.312" y2="33.356"/>
		<line class="st39" x1="282.312" y1="27.025" x2="282.312" y2="13.264"/>
		<line class="st39" x1="285.313" y1="24.025" x2="291.192" y2="24.025"/>
		<line class="st39" x1="279.18" y1="24.025" x2="273.18" y2="24.026"/>
		<line class="st39" x1="266.85" y1="24.025" x2="252.642" y2="24.025"/>
		<line class="st39" x1="285.313" y1="36.357" x2="291.192" y2="36.356"/>
		<line class="st39" x1="279.18" y1="36.356" x2="273.18" y2="36.356"/>
		<line class="st39" x1="266.849" y1="36.356" x2="252.642" y2="36.356"/>
		<line class="st39" x1="263.85" y1="33.223" x2="263.85" y2="27.223"/>
		<line class="st39" x1="263.85" y1="20.892" x2="263.85" y2="9.517"/>
		<line class="st39" x1="263.85" y1="51.191" x2="263.85" y2="39.489"/>
		<line class="st39" x1="273.215" y1="30.156" x2="267.215" y2="30.156"/>
		<line class="st39" x1="260.884" y1="30.156" x2="244.265" y2="30.156"/>
		<line class="st39" x1="300.006" y1="30.156" x2="279.481" y2="30.156"/>
		<polyline class="st39" points="299.69,25.675 304.038,30.022 299.69,34.37 		"/>
		<line class="st39" x1="225.977" y1="27.153" x2="225.977" y2="33.559"/>
		<line class="st39" x1="222.774" y1="30.356" x2="229.18" y2="30.356"/>
	</g>
</g>
<g id="hex-status-pages_x3E_hex">
	<g>
		<polygon id="_x3E_fill" class="st20" points="624.042,46.979 598.1,61.954 572.167,46.979 572.167,17.028 598.1,2.052 
			624.042,17.028 		"/>
		<polyline class="st8" points="612.305,22.139 612.305,17.958 583.896,17.958 583.896,22.139 		"/>
		<rect x="583.896" y="21.669" class="st8" width="28.402" height="17.6"/>
		<line class="st8" x1="598.1" y1="26.535" x2="598.1" y2="30.468"/>
		<line class="st8" x1="598.1" y1="33.201" x2="598.1" y2="34.801"/>
	</g>
</g>
<g id="hex-ssl_x3E_hex">
	<g>
		<polygon id="_x3E_fill_1_" class="st20" points="564.167,47.138 538.225,62.113 512.292,47.138 512.292,17.187 538.225,2.21 
			564.167,17.187 		"/>
		<path class="st8" d="M543,27.827v-3.965c0-2.637-2.137-4.775-4.775-4.775c-2.637,0-4.771,2.142-4.771,4.775v3.965"/>
		<path class="st8" d="M539.983,27.827v-4.461c0-0.971-0.785-1.758-1.767-1.758c-0.971,0-1.758,0.787-1.758,1.758v4.461"/>
		<line class="st8" x1="537.815" y1="33.928" x2="533.161" y2="29.274"/>
		<line class="st8" x1="535.778" y1="35.973" x2="530.606" y2="30.802"/>
		<line class="st8" x1="533.737" y1="38.015" x2="530.606" y2="34.884"/>
		<polyline class="st8" points="530.606,38.966 531.696,40.055 531.696,41.064 		"/>
		<line class="st8" x1="539.875" y1="31.874" x2="537.239" y2="29.236"/>
		<line class="st8" x1="541.713" y1="30.034" x2="540.993" y2="29.31"/>
		<line class="st8" x1="533.983" y1="41.064" x2="545.771" y2="29.274"/>
		<line class="st8" x1="538.062" y1="41.064" x2="545.815" y2="33.311"/>
		<line class="st8" x1="542.143" y1="41.064" x2="545.799" y2="37.408"/>
		<line class="st8" x1="545.799" y1="41.026" x2="545.417" y2="41.026"/>
		<line class="st8" x1="530.877" y1="28.963" x2="530.877" y2="29.507"/>
	</g>
</g>
<g id="hex-new-relic_x3E_hex">
	<g>
		<polygon id="_x3E_fill_2_" class="st20" points="504.167,47.137 478.225,62.112 452.292,47.137 452.292,17.186 478.225,2.21 
			504.167,17.187 		"/>
		<line class="st8" x1="458.633" y1="35.94" x2="458.633" y2="38.986"/>
		<line class="st8" x1="461.719" y1="32.284" x2="461.719" y2="38.986"/>
		<line class="st8" x1="464.805" y1="35.01" x2="464.805" y2="38.986"/>
		<line class="st8" x1="467.899" y1="30.366" x2="467.899" y2="38.986"/>
		<line class="st8" x1="470.983" y1="32.384" x2="470.983" y2="38.986"/>
		<line class="st8" x1="474.069" y1="27.263" x2="474.069" y2="38.986"/>
		<line class="st8" x1="477.268" y1="30.065" x2="477.155" y2="38.986"/>
		<line class="st8" x1="480.245" y1="23.332" x2="480.245" y2="38.986"/>
		<line class="st8" x1="483.331" y1="28.718" x2="483.331" y2="38.986"/>
		<line class="st8" x1="486.417" y1="21.747" x2="486.417" y2="38.986"/>
		<line class="st8" x1="489.5" y1="27.599" x2="489.5" y2="38.986"/>
		<line class="st8" x1="492.588" y1="20.049" x2="492.588" y2="38.986"/>
		<line class="st8" x1="495.674" y1="26.589" x2="495.674" y2="38.986"/>
	</g>
</g>
<g id="hex-logs_x3E_hex">
	<g>
		<polygon id="_x3E_fill_4_" class="st20" points="444.34,47.137 418.405,62.112 392.465,47.137 392.465,17.186 418.405,2.21 
			444.34,17.187 		"/>
		<line class="st8" x1="428.942" y1="24.1" x2="404.577" y2="24.1"/>
		<line class="st8" x1="423.045" y1="27.811" x2="404.577" y2="27.811"/>
		<line class="st8" x1="434.385" y1="31.521" x2="404.577" y2="31.521"/>
		<line class="st8" x1="423.499" y1="35.232" x2="404.577" y2="35.232"/>
		<line class="st8" x1="425.76" y1="38.943" x2="404.577" y2="38.943"/>
	</g>
</g>
<g id="hex-ops-room_x3E_hex">
	<g>
		<polygon id="_x3E_fill_3_" class="st20" points="384.456,47.137 358.516,62.113 332.58,47.137 332.58,17.186 358.516,2.21 
			384.456,17.187 		"/>
		<polyline class="st8" points="350.973,19.345 357.846,17.507 364.717,19.345 		"/>
		<line class="st8" x1="353.184" y1="20.697" x2="353.184" y2="19.097"/>
		<line class="st8" x1="357.818" y1="23.105" x2="357.818" y2="17.507"/>
		<line class="st8" x1="355.502" y1="21.641" x2="355.502" y2="18.142"/>
		<line class="st8" x1="362.506" y1="20.697" x2="362.506" y2="19.054"/>
		<line class="st8" x1="360.189" y1="21.641" x2="360.189" y2="18.142"/>
		<line class="st8" x1="356.59" y1="31.801" x2="358.975" y2="31.801"/>
		<line class="st8" x1="351.627" y1="27.22" x2="363.225" y2="27.218"/>
		<line class="st8" x1="364.152" y1="31.175" x2="364.736" y2="21.473"/>
		<polyline class="st8" points="350.75,21.473 351.691,36.337 357.829,39.789 362.875,37.025 363.208,36.171 		"/>
		<line class="st8" x1="355.536" y1="34.901" x2="360.032" y2="34.901"/>
		<polyline class="st8" points="364.111,43.24 357.827,45.897 351.543,43.24 		"/>
		<polyline class="st8" points="362.045,48.304 357.833,50.084 353.62,48.304 		"/>
		<polyline class="st8" points="378.536,43.19 364.111,40.014 357.827,42.669 351.543,40.014 337.728,42.991 		"/>
		<line class="st8" x1="370.739" y1="43.699" x2="368.083" y2="45.823"/>
		<line class="st8" x1="373.482" y1="44.407" x2="370.829" y2="46.532"/>
		<line class="st8" x1="376.227" y1="45.115" x2="373.573" y2="47.24"/>
		<line class="st8" x1="345.562" y1="43.501" x2="348.219" y2="45.626"/>
		<line class="st8" x1="342.818" y1="44.21" x2="345.473" y2="46.334"/>
		<line class="st8" x1="340.075" y1="44.918" x2="342.73" y2="47.043"/>
		<line class="st8" x1="341.986" y1="22.881" x2="343.463" y2="29.894"/>
		<line class="st8" x1="348.611" y1="29.098" x2="348.79" y2="30.536"/>
		<polyline class="st8" points="362.092,33.741 369.432,33.741 370.342,26.218 367.471,26.193 367.805,16.878 358.114,13.646 
			357.624,13.646 347.932,16.878 348.266,26.193 345.393,26.218 346.23,33.104 349.125,32.834 		"/>
		<line class="st8" x1="366.995" y1="29.222" x2="366.881" y2="30.701"/>
		<line class="st8" x1="373.674" y1="22.881" x2="372.198" y2="29.894"/>
	</g>
</g>
<g id="streaming-logs_x3E_logs">
	<path class="st28" d="M26.899,111.18c-4.28,4.28-4.281,11.222-0.001,15.502c4.281,4.28,11.223,4.28,15.504,0
		c4.28-4.28,4.281-11.222,0-15.502L24.261,93.04"/>
	<path class="st28" d="M29.939,114.221c-2.602,2.602-2.602,6.817,0,9.42c2.603,2.603,6.82,2.603,9.422,0.001
		c2.602-2.604,2.602-6.819,0-9.422L23.695,98.553"/>
	<path class="st28" d="M33.017,117.299c-0.902,0.901-0.902,2.364,0,3.267c0.902,0.901,2.363,0.9,3.266,0
		c0.902-0.902,0.902-2.364,0-3.267L24.19,105.206"/>
	<line class="st28" x1="36.498" y1="101.582" x2="41.538" y2="96.542"/>
	<line class="st28" x1="39.539" y1="104.622" x2="48.517" y2="95.641"/>
	<line class="st28" x1="45.873" y1="104.444" x2="42.616" y2="107.7"/>
</g>
<g id="deploy-logs_x3E_logs">
	<line class="st28" x1="142.278" y1="103.249" x2="171.227" y2="103.249"/>
	<line class="st28" x1="142.278" y1="107.634" x2="179.231" y2="107.634"/>
	<line class="st28" x1="142.278" y1="112.018" x2="163.127" y2="112.018"/>
	<line class="st28" x1="142.278" y1="116.403" x2="171.227" y2="116.403"/>
	<line class="st28" x1="142.278" y1="120.788" x2="177.436" y2="120.788"/>
	<line class="st28" x1="142.278" y1="125.173" x2="164.133" y2="125.173"/>
</g>
<g id="historical-logs_x3E_logs">
	<rect x="89.571" y="110.843" class="st28" width="25.919" height="15.959"/>
	<polyline class="st28" points="85.655,121.296 85.655,106.927 110.532,106.927 	"/>
	<polyline class="st28" points="81.739,115.786 81.739,103.01 105.02,103.01 	"/>
	<polyline class="st28" points="77.823,110.249 77.823,99.094 98.956,99.094 	"/>
	<line class="st28" x1="93.18" y1="114.873" x2="111.225" y2="114.873"/>
	<line class="st28" x1="93.18" y1="118.913" x2="111.225" y2="118.913"/>
	<line class="st28" x1="93.18" y1="122.952" x2="111.225" y2="122.952"/>
</g>
<g id="hex-new-btn_x3E_hex-new-btn">
	<polygon id="_x3E_fill_5_" class="st20" points="34.95,148.057 50.333,156.938 50.333,174.702 34.95,183.584 19.565,174.702 
		19.565,156.938 	"/>
	<line class="st18" x1="34.95" y1="157.542" x2="34.95" y2="174.365"/>
	<line class="st18" x1="26.538" y1="165.954" x2="43.361" y2="165.954"/>
</g>
<g id="circle-plus_x3E_circle-plus">
	<path id="_x3E_fill_6_" class="st37" d="M85.157,164.711c0,4.775-3.873,8.652-8.651,8.652c-4.779,0-8.651-3.877-8.651-8.652
		c0-4.779,3.872-8.652,8.651-8.652C81.284,156.059,85.157,159.932,85.157,164.711z"/>
	<line class="st14" x1="76.505" y1="159.635" x2="76.505" y2="169.84"/>
	<line class="st14" x1="71.248" y1="164.736" x2="81.89" y2="164.736"/>
</g>
<g id="circle-check_x3E_circle-check">
	<circle id="_x3E_fill_7_" class="st20" cx="76.831" cy="192.252" r="8.651"/>
	<path id="_x3E_fill_x2C_check" class="st37" d="M75.641,196.678c-0.205,0-0.392-0.04-0.561-0.12c-0.17-0.08-0.33-0.187-0.48-0.32
		l-2.83-2.843c-0.143-0.143-0.249-0.305-0.32-0.487c-0.071-0.182-0.106-0.367-0.106-0.554c0-0.188,0.035-0.369,0.106-0.548
		c0.071-0.178,0.178-0.333,0.32-0.467c0.143-0.143,0.305-0.251,0.487-0.327c0.183-0.075,0.367-0.113,0.554-0.113
		c0.188,0,0.369,0.038,0.548,0.113c0.178,0.076,0.338,0.185,0.48,0.327l1.802,1.802l4.551-4.564c0.143-0.143,0.303-0.249,0.48-0.32
		c0.177-0.071,0.362-0.107,0.555-0.107c0.19,0,0.375,0.036,0.554,0.107c0.178,0.071,0.338,0.178,0.48,0.32
		c0.142,0.143,0.247,0.303,0.313,0.48c0.066,0.177,0.1,0.363,0.1,0.554s-0.033,0.376-0.1,0.554
		c-0.066,0.179-0.172,0.339-0.313,0.481l-5.593,5.592c-0.134,0.134-0.287,0.24-0.46,0.32
		C76.034,196.638,75.845,196.678,75.641,196.678z"/>
</g>
<g id="manage-molecule_x3E_manage-molecule">
	<circle class="st25" cx="111.244" cy="171.489" r="3.369"/>
	<circle class="st25" cx="115.05" cy="160.544" r="3.369"/>
	<circle class="st25" cx="122.868" cy="165.818" r="2.075"/>
	<line class="st25" x1="112.338" y1="168.347" x2="114.108" y2="163.752"/>
	<line class="st25" x1="121.298" y1="164.474" x2="118.166" y2="162.459"/>
	<circle class="st25" cx="103.247" cy="166.529" r="2.075"/>
	<line class="st25" x1="104.985" y1="167.648" x2="108.361" y2="169.22"/>
</g>
<g id="angles-dedicated_x5F_large_x3E_angles">
	<polygon class="st38" points="456.659,128.762 430.292,117.407 430.292,103.672 456.659,115.027 	"/>
	<polyline class="st38" points="438.42,102.452 460.875,112.124 460.875,125.858 434.51,114.503 434.51,104.369 	"/>
	<polygon class="st38" points="465.098,122.954 438.733,111.598 438.733,97.863 465.098,109.219 	"/>
	<polyline class="st38" points="442.954,108.695 442.954,94.961 469.321,106.317 469.321,120.051 	"/>
	<line class="st38" x1="469.024" y1="120.347" x2="442.657" y2="108.992"/>
	<polygon class="st38" points="420.805,128.762 447.172,117.407 447.172,103.672 420.805,115.027 	"/>
	<polyline class="st38" points="438.946,102.493 416.586,112.124 416.586,125.858 442.954,114.503 442.954,104.403 	"/>
	<polygon class="st38" points="412.368,122.954 438.733,111.598 438.733,97.863 412.368,109.219 	"/>
	<polyline class="st38" points="434.51,108.695 434.51,94.961 408.143,106.317 408.143,120.051 	"/>
	<line class="st38" x1="408.379" y1="120.288" x2="434.749" y2="108.932"/>
	<line class="st38" x1="454.288" y1="99.166" x2="462.202" y2="95.79"/>
	<polyline class="st38" points="448.637,96.772 456.411,93.411 456.411,104.406 	"/>
	<polyline class="st38" points="443.374,94.54 451.29,91.163 451.29,102.135 	"/>
	<polyline class="st38" points="423.596,99.587 415.682,96.211 415.682,107.099 	"/>
	<polyline class="st38" points="454.288,99.166 462.202,95.79 462.202,107.346 	"/>
	<polyline class="st38" points="429.247,97.193 421.475,93.832 421.475,105.228 	"/>
	<polyline class="st38" points="434.51,94.961 426.594,91.584 426.594,102.957 	"/>
	<polyline class="st38" points="422.215,118.801 444.264,128.694 450.202,126.152 	"/>
	<polyline class="st38" points="454.536,118.801 432.487,128.694 426.549,126.152 	"/>
	<line class="st38" x1="415.682" y1="96.211" x2="426.594" y2="91.584"/>
	<line class="st38" x1="462.206" y1="95.749" x2="451.292" y2="91.122"/>
</g>
<g id="angles-private_x3E_angles">
	
		<rect x="264.617" y="100.995" transform="matrix(-0.7071 0.7071 -0.7071 -0.7071 544.7484 -5.7564)" class="st38" width="17.898" height="17.897"/>
	
		<rect x="268.173" y="104.553" transform="matrix(-0.7071 0.7071 -0.7071 -0.7071 544.7645 -5.7446)" class="st38" width="10.799" height="10.799"/>
	
		<rect x="274.29" y="102.573" transform="matrix(-0.707 0.7072 -0.7072 -0.707 558.5648 -11.5092)" class="st38" width="14.753" height="14.755"/>
	
		<rect x="258.373" y="102.563" transform="matrix(0.707 0.7072 -0.7072 0.707 155.6068 -155.7256)" class="st38" width="14.753" height="14.755"/>
	
		<rect x="287.079" y="105.987" transform="matrix(-0.707 0.7072 -0.7072 -0.707 574.6053 -18.1225)" class="st38" width="7.956" height="7.957"/>
	
		<rect x="252.044" y="105.977" transform="matrix(-0.7071 0.7071 -0.7071 -0.7071 514.806 6.6695)" class="st38" width="7.956" height="7.956"/>
</g>
<g id="angles-public_x3E_angles">
	
		<rect x="215.594" y="103.674" transform="matrix(-0.7072 0.707 -0.707 -0.7072 456.5033 30.8376)" class="st38" width="12.544" height="12.542"/>
	
		<rect x="224.081" y="104.77" transform="matrix(-0.707 0.7072 -0.7072 -0.707 469.3965 25.6734)" class="st38" width="10.599" height="10.6"/>
	
		<rect x="209.077" y="104.762" transform="matrix(0.707 0.7072 -0.7072 0.707 140.6445 -119.3598)" class="st38" width="10.597" height="10.6"/>
	
		<rect x="232.846" y="106.593" transform="matrix(-0.7072 0.707 -0.707 -0.7072 481.0494 20.7401)" class="st38" width="6.769" height="6.769"/>
	
		<rect x="204.009" y="106.555" transform="matrix(-0.7073 0.707 -0.707 -0.7073 431.7991 41.0754)" class="st38" width="6.771" height="6.771"/>
</g>
<g id="angles-dedicated_x5F_medium_x3E_angles">
	<polygon class="st38" points="356.611,118.503 356.538,102.772 367.445,95.689 367.518,111.421 	"/>
	<polygon class="st38" points="359.85,120.24 359.775,104.509 370.684,97.427 370.758,113.157 	"/>
	<polygon class="st38" points="363.09,122.005 363.016,106.275 373.924,99.191 373.999,114.923 	"/>
	<polygon class="st38" points="353.37,115.854 353.297,100.122 363.12,93.735 363.193,109.465 	"/>
	<polygon class="st38" points="391.385,118.503 391.459,102.772 380.553,95.689 380.479,111.421 	"/>
	<polygon class="st38" points="388.146,120.24 388.221,104.509 377.312,97.427 377.239,113.157 	"/>
	<polygon class="st38" points="384.909,122.005 384.982,106.275 374.073,99.191 373.999,114.923 	"/>
	<line class="st38" x1="367.254" y1="122.924" x2="380.743" y2="122.924"/>
	<polygon class="st38" points="394.625,115.854 394.702,100.122 384.989,93.635 384.917,109.365 	"/>
	<polygon class="st38" points="353.37,104.041 353.297,119.773 363.053,125.956 363.125,110.226 	"/>
	<polygon class="st38" points="394.625,104.041 394.702,119.773 384.928,126.249 384.854,110.519 	"/>
	<line class="st38" x1="376.102" y1="120.041" x2="371.943" y2="120.041"/>
</g>
<g id="angles-dedicated_x5F_small_x3E_angles">
	<polygon class="st38" points="307.083,117.745 314.571,122.691 330.641,112.017 323.152,107.071 	"/>
	<polygon class="st38" points="307.083,112.805 314.571,117.751 330.641,107.077 323.151,102.134 	"/>
	<polygon class="st38" points="307.083,107.868 314.571,112.813 330.641,102.139 323.151,97.193 	"/>
	<polygon class="st38" points="339.22,117.745 331.731,122.691 315.662,112.017 323.15,107.071 	"/>
	<polygon class="st38" points="339.219,112.805 331.731,117.751 315.662,107.077 323.151,102.134 	"/>
	<polygon class="st38" points="339.219,107.868 331.731,112.813 315.662,102.139 323.151,97.193 	"/>
	<line class="st38" x1="331.778" y1="112.813" x2="331.778" y2="122.691"/>
	<line class="st38" x1="339.6" y1="107.752" x2="339.6" y2="117.63"/>
	<line class="st38" x1="306.933" y1="107.752" x2="306.933" y2="117.63"/>
	<line class="st38" x1="314.688" y1="112.813" x2="314.688" y2="122.691"/>
</g>
<g id="scale-micro_x3E_hex-scale">
	<polygon id="_x3E_outer" class="st9" points="18.048,243.158 50.777,224.262 83.507,243.158 83.507,280.952 50.777,299.847 
		18.048,280.952 	"/>
	<polygon class="st41" points="46.524,259.613 50.777,257.156 55.033,259.613 55.033,264.524 50.777,266.981 46.524,264.524 	"/>
	<polygon class="st41" points="49.013,261.051 50.777,260.031 52.542,261.051 52.542,263.087 50.777,264.106 49.013,263.087 	"/>
</g>
<g id="scale-small_x3E_hex-scale">
	<polygon id="_x3E_outer_1_" class="st9" points="93.794,243.158 126.524,224.262 159.254,243.158 159.254,280.952 126.524,299.847 
		93.794,280.952 	"/>
	<polygon class="st41" points="122.271,259.613 126.524,257.156 130.78,259.613 130.78,264.524 126.524,266.981 122.271,264.524 	
		"/>
	<polygon class="st41" points="119.014,257.733 126.522,253.394 134.038,257.733 134.038,266.406 126.522,270.743 119.014,266.406 	
		"/>
	<polygon class="st41" points="115.637,255.784 126.52,249.495 137.415,255.784 137.415,268.354 126.52,274.642 115.637,268.354 	
		"/>
	<polygon class="st37" points="124.76,261.051 126.524,260.031 128.29,261.051 128.29,263.087 126.524,264.106 124.76,263.087 	"/>
</g>
<g id="scale-medium_x3E_hex-scale">
	<polygon id="_x3E_outer_2_" class="st9" points="169.254,243.158 201.984,224.262 234.714,243.158 234.714,280.952 
		201.984,299.847 169.254,280.952 	"/>
	<polygon class="st41" points="197.73,260.747 201.984,258.29 206.24,260.747 206.24,265.659 201.984,268.115 197.73,265.659 	"/>
	<polygon class="st41" points="194.402,258.826 201.983,254.447 209.567,258.826 209.567,267.581 201.983,271.956 194.402,267.581 	
		"/>
	<polygon class="st41" points="191.273,257.02 201.983,250.834 212.698,257.02 212.698,269.388 201.983,275.569 191.273,269.388 	
		"/>
	<polygon class="st41" points="187.784,255.007 201.982,246.805 216.187,255.007 216.187,271.403 201.982,279.599 187.784,271.403 	
		"/>
	<polygon class="st37" points="200.219,262.185 201.984,261.165 203.749,262.185 203.749,264.22 201.984,265.24 200.219,264.22 	"/>
</g>
<g id="scale-large_x3E_hex-scale">
	<polygon id="_x3E_outer_3_" class="st9" points="244.962,243.158 277.691,224.262 310.422,243.158 310.422,280.952 
		277.691,299.847 244.962,280.952 	"/>
	<polygon class="st41" points="273.438,259.746 277.692,257.289 281.948,259.746 281.948,264.658 277.692,267.114 273.438,264.658 	
		"/>
	<polygon class="st41" points="270.11,257.825 277.691,253.446 285.275,257.825 285.275,266.58 277.691,270.955 270.11,266.58 	"/>
	<polygon class="st41" points="266.632,255.82 277.69,249.431 288.753,255.82 288.753,268.588 277.69,274.97 266.632,268.588 	"/>
	<polygon class="st41" points="263.302,253.898 277.69,245.587 292.083,253.898 292.083,270.511 277.69,278.815 263.302,270.511 	
		"/>
	<polygon class="st41" points="259.873,251.92 277.69,241.628 295.512,251.92 295.512,272.492 277.69,282.774 259.873,272.492 	"/>
	<polygon class="st41" points="256.536,249.994 277.689,237.775 298.848,249.994 298.848,274.418 277.689,286.626 256.536,274.418 	
		"/>
	<polygon class="st37" points="275.928,261.183 277.692,260.164 279.457,261.183 279.457,263.219 277.692,264.239 275.928,263.219 	
		"/>
</g>
<g id="scale-extra_x5F_large_x3E_hex-scale">
	<polygon id="_x3E_outer_4_" class="st9" points="320.299,243.158 353.029,224.262 385.76,243.158 385.76,280.952 353.029,299.847 
		320.299,280.952 	"/>
	<polygon class="st41" points="348.777,259.582 353.032,257.125 357.286,259.582 357.286,264.494 353.032,266.95 348.777,264.494 	
		"/>
	<polygon class="st41" points="345.448,257.661 353.029,253.282 360.614,257.661 360.614,266.416 353.029,270.791 345.448,266.416 	
		"/>
	<polygon class="st41" points="341.971,255.656 353.029,249.267 364.09,255.656 364.09,268.424 353.029,274.806 341.971,268.424 	
		"/>
	<polygon class="st41" points="338.397,253.594 353.029,245.141 367.665,253.594 367.665,270.485 353.029,278.931 338.397,270.485 	
		"/>
	<polygon class="st41" points="335.104,251.694 353.029,241.339 370.959,251.694 370.959,272.388 353.029,282.733 335.104,272.388 	
		"/>
	<polygon class="st41" points="331.694,249.727 353.029,237.401 374.37,249.727 374.37,274.356 353.029,286.673 331.694,274.356 	
		"/>
	<polygon class="st41" points="328.141,247.677 353.029,233.3 377.922,247.677 377.922,276.408 353.029,290.772 328.141,276.408 	
		"/>
	<polygon class="st41" points="324.735,245.512 353.027,228.968 381.329,245.512 381.329,278.571 353.027,295.103 324.735,278.571 	
		"/>
	<polygon class="st37" points="351.266,261.019 353.032,260 354.795,261.019 354.795,263.056 353.032,264.075 351.266,263.056 	"/>
</g>
<g id="ram_x3E_metric">
	<polyline class="st24" points="184.345,159.435 180.937,161.403 177.142,159.206 	"/>
	<polyline class="st24" points="180.251,169.302 176.287,171.591 173.375,169.968 	"/>
	<polyline class="st24" points="183.79,172.206 183.681,167.179 174.299,161.767 	"/>
	<polyline class="st24" points="190.458,171.591 190.35,167.428 183.553,163.517 	"/>
	<polyline class="st24" points="180.382,153.763 170.279,159.499 170.271,164.075 	"/>
	<line class="st24" x1="176.416" y1="167.785" x2="170.333" y2="164.175"/>
	<polyline class="st24" points="180.476,157.705 183.824,155.717 190.484,159.499 190.492,163.516 186.697,161.32 	"/>
	<polyline class="st24" points="180.374,173.017 180.374,177.305 187.184,173.408 187.184,169.515 	"/>
	<polyline class="st24" points="177.142,174.567 177.142,176.292 170.333,172.292 170.333,167.986 	"/>
</g>
<g id="cpus_x3E_metric">
	<polyline class="st40" points="235.714,166.244 234.07,167.19 216.268,156.949 	"/>
	<polyline class="st40" points="207.784,166.244 209.428,167.19 227.233,156.949 	"/>
	<polyline class="st40" points="227.501,170.789 221.768,167.492 216.034,170.789 	"/>
	<polyline class="st40" points="225.551,173.406 221.766,171.227 217.98,173.406 	"/>
	<polyline class="st40" points="224.94,154.741 221.768,156.563 218.595,154.741 	"/>
	<polyline class="st40" points="223.526,175.315 221.766,176.328 220.004,175.315 	"/>
	<line class="st40" x1="213.33" y1="168.846" x2="231.135" y2="158.605"/>
	<line class="st40" x1="212.365" y1="158.605" x2="230.169" y2="168.846"/>
	<polyline class="st40" points="214.966,173.843 213.323,172.896 213.33,172.896 213.33,168.858 	"/>
	<polyline class="st40" points="228.568,173.843 230.211,172.896 230.205,172.896 230.205,168.858 	"/>
</g>
<g id="disk_x3E_metric">
	<line class="st27" x1="273.688" y1="160.383" x2="262.677" y2="154.049"/>
	<line class="st27" x1="263.56" y1="177.019" x2="258.063" y2="173.933"/>
	<polyline class="st27" points="262.677,154.049 252.546,159.875 252.546,170.76 	"/>
	<polyline class="st27" points="268.183,157.215 258.052,163.043 258.052,173.913 	"/>
	<line class="st27" x1="255.3" y1="161.46" x2="265.431" y2="155.633"/>
	<polyline class="st27" points="273.688,160.383 263.56,166.21 263.56,169.8 	"/>
	<line class="st27" x1="255.364" y1="164.049" x2="255.364" y2="172.307"/>
	<line class="st27" x1="260.872" y1="167.215" x2="260.872" y2="172.107"/>
	<line class="st27" x1="258.052" y1="163.043" x2="268.183" y2="157.215"/>
	<line class="st27" x1="260.806" y1="164.626" x2="270.937" y2="158.8"/>
	<polyline class="st27" points="263.56,177.019 273.688,171.191 273.688,163.975 273.688,160.383 	"/>
	<line class="st27" x1="255.274" y1="172.307" x2="252.589" y2="170.76"/>
	<line class="st27" x1="270.937" y1="169.413" x2="263.56" y2="173.655"/>
	<line class="st27" x1="263.56" y1="169.8" x2="270.937" y2="165.556"/>
	<line class="st27" x1="263.56" y1="173.654" x2="260.872" y2="172.107"/>
</g>
<g id="empty-cup_x3E_empty-cup">
	<path class="st25" d="M68.681,322.61c0,2.976-10.684,5.388-20.9,5.388c-10.216,0-20.9-2.412-20.9-5.388
		c0-2.977,10.684-5.389,20.9-5.389C57.997,317.222,68.681,319.635,68.681,322.61z"/>
	<g id="_x3E_dashed_1_">
		<ellipse class="st3" cx="47.781" cy="340.535" rx="12.343" ry="4.172"/>
	</g>
	<path class="st25" d="M61.023,382.93c0,2.611-5.929,4.729-13.243,4.729c-7.313,0-13.243-2.115-13.243-4.729"/>
	<line class="st25" x1="68.681" y1="322.61" x2="61.023" y2="382.93"/>
	<line class="st25" x1="26.88" y1="322.61" x2="34.537" y2="382.93"/>
	<path id="_x3E_dashed" class="st4" d="M35.807,345.581l2.303,31.595c0,2.615,4.33,4.734,9.671,4.734
		c5.342,0,9.672-2.119,9.672-4.734l2.266-31.08"/>
</g>
<g id="adding-machine_x3E_adding-machine">
	<line class="st25" x1="107.406" y1="328.454" x2="112.979" y2="340.448"/>
	<rect x="102.152" y="340.387" class="st25" width="37.102" height="11.379"/>
	<rect x="102.152" y="355.72" class="st25" width="37.102" height="33.806"/>
	<line id="_x3E_dashed_6_" class="st4" x1="107.37" y1="346.076" x2="134.818" y2="346.076"/>
	<g id="_x3E_fill-group">
		<rect x="106.874" y="360.575" class="st1" width="3.667" height="3.668"/>
		<rect x="114.22" y="360.575" class="st1" width="3.667" height="3.668"/>
		<rect x="121.565" y="360.575" class="st1" width="3.667" height="3.668"/>
		<rect x="106.874" y="367.243" class="st1" width="3.667" height="3.668"/>
		<rect x="114.22" y="367.243" class="st1" width="3.667" height="3.668"/>
		<rect x="121.565" y="367.243" class="st1" width="3.667" height="3.668"/>
		<rect x="106.874" y="373.911" class="st1" width="3.667" height="3.668"/>
		<rect x="114.22" y="373.911" class="st1" width="3.667" height="3.668"/>
		<rect x="121.565" y="373.911" class="st1" width="3.667" height="3.668"/>
		<rect x="129.847" y="373.911" class="st1" width="3.667" height="10.471"/>
		<rect x="106.874" y="380.579" class="st1" width="3.667" height="3.668"/>
		<rect x="114.22" y="380.579" class="st1" width="3.667" height="3.668"/>
		<rect x="121.565" y="380.579" class="st1" width="3.667" height="3.668"/>
	</g>
	<polyline class="st25" points="107.098,325.227 97.93,325.227 97.93,330.89 104.264,330.89 104.264,340.221 	"/>
	<path class="st25" d="M129.533,333.234c0.383,0.243,0.789,0.376,1.21,0.376c2.251,0,4.075-3.754,4.075-8.385
		c0-4.63-1.824-8.384-4.075-8.384s-4.075,3.754-4.075,8.384c0,1.167,0.116,2.279,0.326,3.29l5.532,12.099"/>
	<path class="st25" d="M130.743,316.843h-19.57c-2.251,0-4.075,3.754-4.075,8.384c0,1.213,0.125,2.364,0.35,3.404"/>
	<polyline class="st25" points="131.37,325.227 143.813,325.227 143.813,330.89 137.479,330.89 137.479,340.221 	"/>
</g>
<g id="topology-single_x3E_new-service-topology">
	<circle class="st13" cx="39.142" cy="435.912" r="10.655"/>
	<circle class="st13" cx="39.142" cy="435.912" r="5.589"/>
</g>
<g id="topology-redundant_x3E_new-service-topology">
	<circle class="st38" cx="77.681" cy="435.912" r="10.655"/>
	<circle class="st38" cx="77.681" cy="435.912" r="5.589"/>
	<circle class="st38" cx="111.045" cy="435.912" r="5.589"/>
	<circle class="st38" cx="111.045" cy="435.911" r="10.654"/>
	<line class="st38" x1="77.68" y1="425.256" x2="96.426" y2="425.256"/>
	<polyline class="st38" points="92.387,421.217 96.426,425.256 92.387,429.295 	"/>
	<line class="st38" x1="111.045" y1="446.567" x2="92.299" y2="446.567"/>
	<polyline class="st38" points="96.338,442.526 92.299,446.567 96.338,450.606 	"/>
</g>
<g id="topology-cluster_x3E_new-service-topology">
	<path class="st38" d="M152.742,446.567c-5.884,0-10.655-4.771-10.655-10.656c0-5.883,4.771-10.654,10.655-10.654"/>
	<circle class="st38" cx="152.742" cy="435.912" r="5.589"/>
	<circle class="st38" cx="174.051" cy="435.912" r="5.589"/>
	<circle class="st38" cx="195.361" cy="435.912" r="5.589"/>
	<path class="st38" d="M216.67,425.256c5.885,0,10.654,4.771,10.654,10.654c0,5.885-4.77,10.656-10.654,10.656"/>
	<g id="_x3E_dashed_2_">
		<circle class="st33" cx="216.67" cy="435.912" r="5.589"/>
	</g>
	<path class="st38" d="M174.051,446.567c-4.642,0-7.399-2.82-10.654-2.82c-3.256,0-6.014,2.82-10.655,2.82"/>
	<path class="st38" d="M174.051,425.256c-4.642,0-7.399,2.82-10.654,2.82c-3.256,0-6.014-2.82-10.655-2.82"/>
	<path class="st38" d="M174.051,446.567c4.642,0,7.399-2.82,10.654-2.82c3.256,0,6.014,2.82,10.655,2.82"/>
	<path class="st38" d="M174.051,425.256c4.642,0,7.399,2.82,10.654,2.82c3.256,0,6.014-2.82,10.655-2.82"/>
	<path class="st38" d="M216.67,446.567c-4.642,0-7.399-2.82-10.654-2.82c-3.256,0-6.014,2.82-10.655,2.82"/>
	<path class="st38" d="M216.67,425.256c-4.642,0-7.399,2.82-10.654,2.82c-3.256,0-6.014-2.82-10.655-2.82"/>
</g>
<g id="topology-ring_x3E_new-service-topology">
	<circle class="st38" cx="255.39" cy="440.504" r="6.311"/>
	<path class="st38" d="M280.562,430.758c-0.211-0.121-0.426-0.221-0.639-0.326l0.014-0.008c-2.309-1.146-3.705-3.564-3.543-6.139
		l-0.012,0.008c0.26-4.131-1.766-8.252-5.594-10.461c-5.383-3.107-12.264-1.264-15.371,4.119c-1.15,1.996-1.619,4.197-1.482,6.338
		l-0.004-0.004c0.162,2.572-1.234,4.992-3.543,6.137l0.004,0.002c-1.92,0.951-3.594,2.459-4.746,4.455
		c-3.105,5.381-1.264,12.26,4.117,15.371c3.828,2.209,8.408,1.902,11.857-0.389v0.016c2.146-1.428,4.939-1.428,7.086,0v-0.018
		c0.197,0.133,0.393,0.27,0.602,0.391c5.383,3.105,12.264,1.262,15.373-4.121C287.784,440.75,285.942,433.868,280.562,430.758z"/>
	<path class="st38" d="M268.317,418.112c3.018,1.742,4.053,5.602,2.311,8.621c-1.744,3.016-5.604,4.051-8.621,2.311
		c-3.018-1.744-4.051-5.604-2.309-8.623C261.44,417.405,265.3,416.372,268.317,418.112z"/>
	<circle class="st38" cx="274.935" cy="440.502" r="6.309"/>
	<g id="_x3E_dashed_5_">
		<g>
			<line class="st22" x1="261.444" y1="429.887" x2="260.612" y2="431.135"/>
			<line class="st22" x1="259.407" y1="432.944" x2="258.575" y2="434.192"/>
		</g>
	</g>
	<g id="_x3E_dashed_4_">
		<g>
			<line class="st22" x1="268.88" y1="429.887" x2="269.712" y2="431.135"/>
			<line class="st22" x1="270.917" y1="432.944" x2="271.749" y2="434.192"/>
		</g>
	</g>
	<g id="_x3E_dashed_3_">
		<g>
			<line class="st22" x1="262.419" y1="440.504" x2="263.919" y2="440.504"/>
			<line class="st22" x1="266.181" y1="440.504" x2="267.681" y2="440.504"/>
		</g>
	</g>
</g>
<g id="stork_x3E_new-app">
	<polyline class="st36" points="78.034,635.098 58.805,618.918 29.388,613.624 	"/>
	<line class="st36" x1="55.428" y1="622.319" x2="34.729" y2="619.581"/>
	<line class="st36" x1="52.776" y1="625.338" x2="38.768" y2="624.817"/>
	<line class="st36" x1="48.116" y1="628.676" x2="43.257" y2="628.852"/>
	<line class="st36" x1="60.724" y1="623.391" x2="48.979" y2="631.77"/>
	<line class="st36" x1="63.297" y1="625.864" x2="52.229" y2="635.12"/>
	<line class="st36" x1="66.077" y1="628.442" x2="57.551" y2="636.692"/>
	<line class="st36" x1="68.999" y1="630.86" x2="62.03" y2="638.483"/>
	<line class="st36" x1="72.053" y1="633.106" x2="67.069" y2="639.268"/>
	<line class="st36" x1="75.23" y1="635.174" x2="72.786" y2="638.483"/>
	<line class="st36" x1="78.545" y1="631.002" x2="82.083" y2="618.463"/>
	<line class="st36" x1="63.518" y1="619.35" x2="79.929" y2="619.258"/>
	<line class="st36" x1="68.071" y1="622.993" x2="78.456" y2="622.432"/>
	<line class="st36" x1="72.179" y1="626.522" x2="77.434" y2="625.606"/>
	<line class="st36" x1="75.134" y1="629.704" x2="76.565" y2="628.706"/>
	<polygon class="st36" points="87.772,629.79 83.507,633.956 103.579,633.956 89.155,628.567 	"/>
	<polyline class="st36" points="105.338,651.711 108.434,651.711 110.792,648.174 105.338,637.858 99.885,648.174 102.243,651.711 
		105.338,651.711 	"/>
	<line class="st36" x1="17.658" y1="632.887" x2="40.5" y2="632.887"/>
	<line class="st36" x1="46.491" y1="636.03" x2="36.872" y2="636.03"/>
	<line class="st36" x1="105.369" y1="642.588" x2="105.412" y2="647.284"/>
</g>
<g id="quickstart-box_x3E_new-app">
	<polygon class="st36" points="61.305,533.11 75.816,542.522 61.297,552.725 46.775,542.522 	"/>
	<line class="st36" x1="61.297" y1="557.864" x2="46.775" y2="547.661"/>
	<line class="st36" x1="75.816" y1="547.661" x2="61.297" y2="557.864"/>
	<line class="st36" x1="61.297" y1="563" x2="46.775" y2="552.797"/>
	<line class="st36" x1="75.816" y1="552.797" x2="61.297" y2="563"/>
	<polyline class="st36" points="46.775,542.54 46.775,552.795 61.297,563 75.816,552.795 75.816,542.54 	"/>
	<line class="st36" x1="61.297" y1="552.725" x2="61.297" y2="562.391"/>
	<polygon class="st36" points="53.629,512.961 61.27,507.592 68.908,512.961 61.27,518.329 	"/>
	<polyline class="st36" points="53.629,512.961 53.629,522.465 61.27,527.834 68.908,522.465 68.908,512.961 	"/>
	<line class="st36" x1="61.27" y1="518.329" x2="61.27" y2="527.834"/>
	<line class="st36" x1="57.412" y1="515.87" x2="57.412" y2="525.221"/>
	<line class="st36" x1="65.184" y1="515.87" x2="65.184" y2="525.221"/>
	<line class="st36" x1="57.41" y1="515.495" x2="65.049" y2="510.125"/>
	<line class="st36" x1="57.43" y1="510.299" x2="65.068" y2="515.668"/>
	<line class="st36" x1="64.584" y1="502.231" x2="67.445" y2="492.274"/>
	<line class="st36" x1="67.684" y1="503.459" x2="71.871" y2="496.752"/>
	<line class="st36" x1="70.334" y1="505.483" x2="77.975" y2="498.485"/>
	<line class="st36" x1="72.334" y1="508.149" x2="78.33" y2="505.196"/>
	<line class="st36" x1="58.025" y1="502.231" x2="55.164" y2="492.274"/>
	<line class="st36" x1="54.928" y1="503.459" x2="50.174" y2="495.846"/>
	<line class="st36" x1="52.277" y1="505.483" x2="43.783" y2="497.659"/>
	<line class="st36" x1="50.277" y1="508.149" x2="43.227" y2="504.676"/>
	<polyline class="st36" points="54.188,547.731 61.262,542.629 68.281,547.622 	"/>
	<line class="st36" x1="61.305" y1="533.11" x2="61.297" y2="543.176"/>
	<line class="st36" x1="57.307" y1="535.881" x2="57.307" y2="546.137"/>
	<line class="st36" x1="58.328" y1="545.284" x2="65.348" y2="550.276"/>
	<line class="st36" x1="53.049" y1="538.458" x2="53.049" y2="546.93"/>
	<line class="st36" x1="65.297" y1="535.881" x2="65.297" y2="546.137"/>
	<line class="st36" x1="69.555" y1="538.458" x2="69.555" y2="546.93"/>
	<line class="st36" x1="61.305" y1="501.985" x2="61.305" y2="488.928"/>
</g>
<g id="verify-account_x3E_verify-account">
	<g id="_x3E_fill_8_">
		<path class="st11" d="M278.126,563.102c0,1.1-0.9,2-2,2h-25.092c-1.1,0-2-0.9-2-2v-43.631c0-1.1,0.9-2,2-2h25.092c1.1,0,2,0.9,2,2
			V563.102z"/>
	</g>
	<polygon id="_x3E_fill_x2C_face" class="st35" points="234.737,524.717 251.077,524.717 257.243,531.295 257.243,524.717 
		260.669,524.717 260.669,505.463 234.737,505.463 	"/>
	<path id="_x3E_fill_x2C_eyes_1_" class="st29" d="M256.315,510.76c-0.395-0.631-1.23-0.82-1.865-0.426
		c-0.627,0.398-0.816,1.23-0.422,1.861c0.396,0.635,1.23,0.826,1.865,0.43C256.524,512.229,256.714,511.393,256.315,510.76z"/>
	<path id="_x3E_fill_x2C_eyes" class="st29" d="M241.825,510.76c-0.396-0.631-1.231-0.82-1.865-0.426
		c-0.628,0.398-0.818,1.23-0.422,1.861c0.395,0.635,1.23,0.826,1.865,0.43C242.032,512.229,242.222,511.393,241.825,510.76z"/>
	<path class="st14" d="M239.899,516.911c2.217,1.689,4.984,2.693,7.986,2.693c3.002,0,5.768-1.004,7.984-2.693"/>
	<g id="_x3E_phone-lines">
		<line class="st36" x1="254.681" y1="533.668" x2="272.452" y2="533.668"/>
		<line class="st36" x1="254.681" y1="537.61" x2="272.452" y2="537.61"/>
		<line class="st36" x1="254.681" y1="541.549" x2="272.452" y2="541.549"/>
		<line class="st36" x1="254.681" y1="545.491" x2="272.452" y2="545.491"/>
	</g>
</g>
<g id="tinker_x3E_new-app">
	<path class="st36" d="M184.864,547.127c-1.332,2.771-4.251,3.188-5.873,3.188h-9.214c-3.011,0-6.036,1.021-8.241,3.193
		c-1.321,1.301-2.348,3.018-2.9,5.172c-0.291,1.137-0.45,2.396-0.45,3.781v0.984"/>
	<path class="st36" d="M188.4,554.438c-2.451,2.105-5.728,3.283-9.409,3.283h-9.214c-2.043,0-3.089,0.852-3.624,1.859"/>
	<path class="st36" d="M191.541,550.334c0.068-0.143,0.148-0.316,0.231-0.52c0.916-2.201,2.428-7.771-2.253-13.617l-1.531-2.23"/>
	<path class="st36" d="M169.777,554.018h3.219h5.995c4.24,0,7.598-1.928,9.211-5.287c0.677-1.408,1.844-4.926-0.699-8.986
		c0,0-1.488-2.268-2.401-3.523c-2.27-3.123-2.729-6.85,1.156-8.457"/>
	<path class="st36" d="M161.89,562.461c0-2.682,0.756-4.621,1.922-5.959"/>
	<path class="st36" d="M156.485,554.93c-1.165-1.656-2.721-2.85-4.459-3.605"/>
	<path class="st36" d="M125.287,539.508c-1.037,2.561-1.316,5.439-1.046,7.479c0.207,1.564,0.742,2.734,1.037,3.348
		c2.222,4.625,6.913,7.387,12.549,7.387h9.214c1.973,0,3.016,0.795,3.566,1.771"/>
	<path class="st36" d="M133.94,553.403c-2.384-0.816-4.245-2.426-5.325-4.672c-0.745-1.551-2.082-5.648,1.576-10.221
		c0.896-1.15,1.296-3.791-0.367-6.062"/>
	<path class="st36" d="M154.928,562.461c0-6.227-4.074-8.443-7.887-8.443h-6.945h-2.269"/>
	<circle class="st36" cx="155.586" cy="498.635" r="4.629"/>
	<path class="st36" d="M140.793,544.819c-1.825,0-3.244-1.25-1.622-3.75c2.812-4.334,12.295-23.062,13.21-24.25
		c1.523-1.98,1.5-3.361,0.25-3.361s0,0-2.5,0s-2.25-3.5,0-3.5c2.079,0,14.75,0,17,0s2.5,3.5,0,3.5s-1.25,0-2.5,0
		s-0.664,1.973,0.25,3.361c0.824,1.254,10.398,19.916,13.21,24.25c1.622,2.5,0.203,3.75-1.622,3.75
		C173.834,544.819,143.428,544.819,140.793,544.819z"/>
	<path class="st36" d="M161.151,549.092c-1.182,0.762-2.268,1.705-3.205,2.836"/>
	<polyline class="st36" points="165.375,563.936 162.851,566.459 158.347,566.459 153.842,566.459 151.318,563.936 	"/>
	<line class="st36" x1="145.618" y1="477.833" x2="145.618" y2="481.747"/>
	<line class="st36" x1="151.417" y1="483.719" x2="147.503" y2="483.719"/>
	<line class="st36" x1="145.529" y1="489.518" x2="145.529" y2="485.604"/>
	<line class="st36" x1="139.73" y1="483.631" x2="143.645" y2="483.631"/>
	<line class="st36" x1="149.439" y1="530.813" x2="144.735" y2="539.743"/>
	<line class="st36" x1="155.043" y1="528.596" x2="149.171" y2="539.743"/>
	<line class="st36" x1="158.446" y1="530.559" x2="153.607" y2="539.743"/>
	<line class="st36" x1="163.915" y1="528.596" x2="158.043" y2="539.743"/>
	<line class="st36" x1="167.193" y1="530.795" x2="162.479" y2="539.743"/>
	<line class="st36" x1="169.723" y1="534.413" x2="166.915" y2="539.743"/>
	<line class="st36" x1="172.493" y1="537.577" x2="171.351" y2="539.743"/>
	<path class="st36" d="M133.83,534.102c2.484,2.629,0.29,5.83-1.229,7.58c-0.452,0.521-0.809,1.199-0.984,1.955
		c-0.357,1.537-0.015,2.758,0.337,3.49c1.332,2.771,4.251,3.188,5.873,3.188h9.214"/>
</g>
<g id="production_x3E_new-app">
	<path class="st36" d="M186.348,634.61h-31.87c-2.713,0-4.911,2.197-4.911,4.91c0,2.711,2.198,4.908,4.911,4.908h31.87
		c2.712,0,4.91-2.197,4.91-4.908S189.06,634.61,186.348,634.61z"/>
	<path class="st36" d="M189.69,631.731c0,0,7.131-5.262,10.306-7.758c3.175-2.498,14.471-2.703,14.471-2.703l-20.522,16.381"/>
	<line class="st36" x1="202.076" y1="626.292" x2="193.981" y2="632.596"/>
	<path class="st36" d="M168.272,647.006c0,0,1.65,3.119,4.402,1.65"/>
	<path class="st36" d="M168.272,650.858c0,0,1.65,3.117,4.402,1.65"/>
	<path class="st36" d="M168.272,655.084c0,0,1.65,3.117,4.402,1.65"/>
	<path class="st36" d="M168.272,658.936c0,0,1.65,3.117,4.402,1.65"/>
	<path class="st36" d="M169.099,663.614c0,0,0.784,1.48,2.173,1.92"/>
	<line class="st36" x1="159.761" y1="647.456" x2="152.513" y2="654.03"/>
	<line class="st36" x1="164.939" y1="647.528" x2="156.029" y2="655.233"/>
	<polyline class="st36" points="186.728,628.653 168.181,609.668 167.575,612.856 167.065,616.17 169.868,616.551 	"/>
	<line class="st36" x1="171.406" y1="618.532" x2="171.04" y2="620.913"/>
	<line class="st36" x1="173.749" y1="621.704" x2="173.384" y2="624.084"/>
	<line class="st36" x1="176.215" y1="624.831" x2="175.849" y2="627.211"/>
	<line class="st36" x1="178.558" y1="628.002" x2="178.192" y2="630.383"/>
	<polyline class="st36" points="183.017,620.881 187.905,606.967 193.798,604.334 190.288,625.645 	"/>
	<polyline class="st36" points="147.232,635.959 132.388,609.053 138.696,610.538 150.387,623.711 	"/>
	<line class="st36" x1="140.552" y1="617.403" x2="149.644" y2="631.506"/>
	<line class="st36" x1="181.188" y1="636.87" x2="181.188" y2="642.1"/>
	<line class="st36" x1="183.802" y1="639.483" x2="178.574" y2="639.483"/>
	<line class="st36" x1="178.957" y1="646.526" x2="186.602" y2="656.95"/>
	<polyline class="st36" points="152.55,631.932 153.592,625.329 159.962,620.465 161.699,623.012 158.457,627.182 160.511,632.403 	
		"/>
	<polyline class="st36" points="162.411,628.491 167.214,625.971 169.18,628.133 165.838,631.868 	"/>
</g>
<g id="v2-beta_x3E_v2-beta">
	<g id="_x3E_fill_9_">
		<g>
			<path class="st19" d="M486.881,114.242l-3.916-11.14h1.591l3.188,9.657h0.031l3.215-9.657h1.544l-3.963,11.14H486.881z"/>
			<path class="st19" d="M493.2,105.536c0.145-0.478,0.371-0.892,0.678-1.24c0.308-0.348,0.689-0.622,1.147-0.819
				c0.458-0.198,0.978-0.297,1.56-0.297c0.479,0,0.929,0.07,1.351,0.211c0.428,0.14,0.788,0.343,1.104,0.608
				c0.312,0.265,0.56,0.596,0.741,0.991c0.182,0.396,0.271,0.853,0.271,1.373c0,0.489-0.076,0.92-0.227,1.295
				c-0.151,0.375-0.354,0.71-0.604,1.006c-0.249,0.296-0.534,0.564-0.854,0.803c-0.322,0.24-0.655,0.468-0.998,0.687
				c-0.344,0.208-0.688,0.414-1.03,0.616c-0.343,0.203-0.658,0.419-0.939,0.648c-0.283,0.229-0.528,0.476-0.73,0.741
				c-0.203,0.265-0.336,0.57-0.398,0.913h5.687v1.17h-7.229c0.06-0.655,0.171-1.214,0.354-1.677
				c0.182-0.463,0.414-0.866,0.688-1.209c0.279-0.343,0.604-0.645,0.951-0.905c0.354-0.26,0.729-0.504,1.107-0.733
				c0.468-0.291,0.879-0.559,1.229-0.804c0.354-0.244,0.647-0.491,0.886-0.741c0.229-0.25,0.406-0.52,0.526-0.811
				c0.119-0.291,0.187-0.629,0.187-1.014c0-0.302-0.062-0.575-0.179-0.819c-0.108-0.244-0.268-0.455-0.461-0.632
				c-0.188-0.177-0.418-0.312-0.678-0.406c-0.261-0.093-0.536-0.14-0.828-0.14c-0.385,0-0.715,0.081-0.99,0.242
				c-0.271,0.162-0.502,0.372-0.679,0.632c-0.177,0.26-0.304,0.554-0.382,0.882s-0.112,0.658-0.102,0.991h-1.326
				C492.997,106.535,493.053,106.015,493.2,105.536z"/>
			<path class="st19" d="M515.057,103.103c0.476,0,0.918,0.044,1.354,0.132c0.432,0.088,0.812,0.24,1.14,0.453
				c0.327,0.213,0.591,0.494,0.788,0.842c0.197,0.349,0.297,0.783,0.297,1.303c0,0.292-0.047,0.575-0.141,0.851
				s-0.229,0.525-0.398,0.749s-0.375,0.413-0.604,0.569c-0.233,0.156-0.497,0.265-0.788,0.328v0.031
				c0.718,0.093,1.29,0.388,1.717,0.881c0.426,0.494,0.639,1.105,0.639,1.833c0,0.177-0.016,0.377-0.047,0.601
				c-0.026,0.224-0.093,0.452-0.187,0.687c-0.097,0.234-0.229,0.465-0.405,0.694c-0.178,0.229-0.414,0.429-0.711,0.601
				c-0.296,0.171-0.66,0.312-1.092,0.421c-0.438,0.109-0.949,0.164-1.56,0.164h-4.711v-11.14H515.057z M515.057,107.986
				c0.435,0,0.797-0.049,1.108-0.148c0.312-0.099,0.571-0.234,0.78-0.405c0.208-0.172,0.356-0.372,0.468-0.601
				c0.104-0.229,0.156-0.473,0.156-0.733c0-1.394-0.837-2.091-2.52-2.091h-3.646v3.979L515.057,107.986L515.057,107.986z
				 M515.057,113.337c0.396,0,0.771-0.034,1.124-0.102c0.354-0.067,0.665-0.189,0.938-0.367c0.27-0.177,0.479-0.414,0.639-0.71
				c0.156-0.296,0.234-0.668,0.234-1.115c0-0.718-0.252-1.256-0.756-1.615c-0.506-0.359-1.23-0.539-2.185-0.539h-3.646v4.447
				L515.057,113.337L515.057,113.337z"/>
			<path class="st19" d="M530.004,103.103v0.905h-6.631v4.025h6.21v0.905h-6.21v4.4h6.709v0.905h-7.77v-11.14H530.004z"/>
			<path class="st19" d="M540.754,103.103v0.905h-3.885v10.235h-1.062v-10.235h-3.869v-0.905H540.754z"/>
			<path class="st19" d="M546.745,103.103l4.369,11.14h-1.146l-1.354-3.464h-5.07l-1.342,3.464h-1.124l4.479-11.14H546.745z
				 M548.258,109.874l-2.146-5.71l-2.231,5.71H548.258z"/>
		</g>
	</g>
	<line id="_x3E_line" class="st6" x1="505.227" y1="95.147" x2="505.227" y2="120.12"/>
</g>
<g id="clock_x3E_clock">
	<circle class="st21" cx="588.405" cy="106.784" r="23.186"/>
	<line class="st21" x1="588.406" y1="93.09" x2="588.406" y2="87.292"/>
	<g id="_x3E_thin">
		<line class="st16" x1="596.742" y1="92.437" x2="598.198" y2="89.93"/>
		<line class="st16" x1="602.822" y1="98.566" x2="605.34" y2="97.131"/>
		<line class="st16" x1="602.641" y1="115.311" x2="605.127" y2="116.8"/>
		<line class="st16" x1="596.43" y1="121.309" x2="597.831" y2="123.846"/>
		<line class="st16" x1="579.69" y1="120.904" x2="578.167" y2="123.371"/>
		<line class="st16" x1="573.776" y1="114.614" x2="571.219" y2="115.981"/>
		<line class="st16" x1="574.403" y1="97.881" x2="571.958" y2="96.325"/>
		<line class="st16" x1="580.771" y1="92.05" x2="579.439" y2="89.477"/>
	</g>
	<line class="st21" x1="602.1" y1="106.784" x2="607.896" y2="106.784"/>
	<line class="st21" x1="588.406" y1="120.477" x2="588.406" y2="126.276"/>
	<line class="st21" x1="574.711" y1="106.784" x2="568.915" y2="106.784"/>
	<polyline class="st31" points="600.345,100.216 588.405,106.784 588.405,106.784 581.344,102.815 	"/>
</g>
<g id="logo_x3E_logo">
	<polyline id="_x3E_a" class="st17" points="198.16,340.368 197.872,342.655 193.576,345.315 185.31,344.557 182.85,339.564 
		189.748,335.728 198.16,340.368 	"/>
	<polygon id="_x3E_b_1_" class="st32" points="182.85,339.564 179.868,348.918 185.31,344.557 	"/>
	<polygon id="_x3E_d" class="st26" points="190.081,356.073 185.31,358.719 179.868,351.09 179.868,348.918 185.31,344.557 	"/>
	<polygon id="_x3E_b" class="st32" points="190.081,356.073 193.576,345.315 185.31,344.557 	"/>
	<polygon id="_x3E_e" class="st15" points="179.868,351.09 185.31,361.745 185.31,358.719 	"/>
	<polygon id="_x3E_f" class="st42" points="185.31,361.745 190.081,363.161 190.081,356.073 185.31,358.719 	"/>
	<polygon id="_x3E_c" class="st5" points="190.081,363.161 190.081,356.073 193.576,345.315 197.872,342.655 199.961,345.315 
		199.961,354.928 194.191,362.124 	"/>
	<polygon id="_x3E_b_2_" class="st32" points="199.961,345.315 198.16,340.368 197.872,342.655 	"/>
	<g id="_x3E_fill_x2C_type">
		<path class="st42" d="M259.133,350.696C259.127,350.569,259.128,350.601,259.133,350.696L259.133,350.696z"/>
		<path class="st42" d="M259.159,351.229c0,0-0.018-0.363-0.026-0.532C259.137,350.785,259.146,350.949,259.159,351.229z"/>
		<path class="st42" d="M223.149,345.091c-2.446,0-4.893,0-7.339,0c0,1.331,0.818,2.419,2.092,2.778
			c-1.604,2.286-1.132,5.518-1.132,8.167c0,2.25,0,4.501,0,6.751c3.28,0,3.601-3.08,3.601-5.597c3.58,1.896,8.102-0.438,8.995-4.282
			C230.282,348.969,227.192,345.091,223.149,345.091z M223.149,354.547c-1.711,0-3.099-1.388-3.099-3.099s1.388-3.1,3.099-3.1
			s3.099,1.389,3.099,3.1S224.86,354.547,223.149,354.547z"/>
		<path class="st42" d="M302.286,364.877c0.36-0.662,0.721-1.326,1.081-1.988c-0.153,0-1.046-0.094-1.104,0.012
			c-0.171,0.307-0.342,0.611-0.513,0.918c-0.421,0.754-0.842,1.508-1.263,2.262c-0.433-0.84-0.866-1.678-1.298-2.518
			c-0.05-0.096-0.264-0.674-0.382-0.674c-0.389,0-0.778,0-1.167,0c0.387,0.691,0.775,1.383,1.162,2.074
			c0.117,0.207,1.17,1.717,1.062,1.912c-0.776,1.398-1.551,2.807-2.327,4.211c0.152,0,1.085,0.09,1.138-0.018
			c0.183-0.355,0.365-0.697,0.548-1.057c0.421-0.811,0.842-1.621,1.264-2.438c0.457,0.863,0.915,1.729,1.372,2.592
			c0.106,0.199,0.284,0.779,0.48,0.906c0.227,0.146,0.987,0,1.269,0c-0.798-1.398-1.597-2.807-2.395-4.209
			C301.096,366.674,302.167,365.096,302.286,364.877z"/>
		<path class="st42" d="M288.036,366.799c1.392-0.303,1.769-1.896,1.131-3.053c-0.529-0.828-1.356-0.857-2.239-0.857
			c-0.724,0-1.448,0-2.172,0c-0.271,0-0.15,0.336-0.15,0.57c0,2.543,0,5.084,0,7.627c1.129,0,2.31,0.102,3.43-0.068
			C290.256,370.667,290.329,367.063,288.036,366.799z M286.001,363.85c0.381,0,0.762,0,1.144,0c1.33,0,1.883,1.928,0.576,2.436
			c-0.592,0.229-1.362,0.104-1.983,0.104c0-0.715,0-1.428,0-2.143C285.738,363.905,285.652,363.85,286.001,363.85z M288.188,369.852
			c-0.597,0.465-1.738,0.273-2.45,0.273c0-0.729,0-1.443,0-2.166c0-0.092-0.053-0.686,0.044-0.686c0.328,0,0.657-0.012,0.984,0
			c0.612,0,1.507,0.066,1.788,0.727C288.811,368.594,288.725,369.432,288.188,369.852z"/>
		<path class="st42" d="M295.147,362.899c-1.054-0.398-2.534-0.223-3.238,0.729c-0.842,1.135-0.512,3.104-0.512,4.438
			c0,1.195,0.232,2.551,1.496,3.014c1.014,0.371,2.504,0.262,3.168-0.695c0.863-1.242,0.514-3.432,0.514-4.881
			C296.576,364.44,296.231,363.307,295.147,362.899z M295.478,368.137c0,0.885-0.08,2.055-1.167,2.209
			c-1.106,0.158-1.654-0.518-1.753-1.533c-0.109-1.133-0.029-2.301-0.029-3.436c0-2.031,2.755-2.443,2.938-0.312
			C295.553,366.081,295.478,367.122,295.478,368.137z"/>
		<path class="st42" d="M238.732,345.131c-3.111-0.35-6.142,1.692-6.918,4.74c-0.775,3.043,0.838,6.254,3.715,7.479
			c1.591,0.682,3.404,0.645,4.99-0.029c0.42-0.178,0.838-0.654,1.146-0.272c0.175,0.217,0.38,0.411,0.609,0.571
			c0.604,0.422,1.369,0.646,2.104,0.646c0-2.264,0-4.527,0-6.792C244.378,348.281,241.915,345.489,238.732,345.131z
			 M237.999,354.547c-1.711,0-3.099-1.388-3.099-3.099s1.388-3.1,3.099-3.1s3.099,1.389,3.099,3.1S239.71,354.547,237.999,354.547z"
			/>
		<path class="st42" d="M257.89,347.628c0.92-0.525,1.406-1.491,1.406-2.538c-1.513,0-3.026,0-4.539,0
			c-1.85,0-3.655-0.08-5.314,0.923c-2.981,1.802-3.956,5.777-2.153,8.76c1.713,2.833,5.372,3.833,8.336,2.424
			c0,1.421,0.49,4.39-1.269,4.972c-0.308,0.062,0.036,0.307,0.137,0.361c0.332,0.191,0.756,0.271,1.132,0.188
			c0.442,0.008,1.026-0.021,1.551-0.266c1.353-0.641,1.881-1.912,1.981-3.336c0.134-2.622,0-5.275,0-7.894
			C259.095,349.93,258.69,348.665,257.89,347.628z M252.84,354.547c-1.711,0-3.099-1.388-3.099-3.099s1.388-3.1,3.099-3.1
			s3.099,1.389,3.099,3.1S254.552,354.547,252.84,354.547z"/>
		<path class="st42" d="M267.63,345.091c-3.354,0-6.246,2.677-6.406,6.047c-0.165,3.488,2.58,6.539,6.074,6.703
			c3.599,0.168,6.71-2.755,6.71-6.375C274.009,347.996,271.111,345.091,267.63,345.091z M267.63,354.547
			c-1.711,0-3.099-1.388-3.099-3.099s1.388-3.1,3.099-3.1s3.099,1.389,3.099,3.1S269.342,354.547,267.63,354.547z"/>
		<path class="st42" d="M285.258,339.329c0,2.126,0,4.252,0,6.379c-2.54-1.014-5.395-0.745-7.391,1.251
			c-1.811,1.811-2.381,4.614-1.372,6.979c0.997,2.341,3.33,3.908,5.882,3.908c1.247,0,2.49-0.332,3.532-1.027
			c0.655,0.917,1.723,1.439,2.847,1.439c0-2.161,0-4.321,0-6.481v-0.731c0,0.002,0-7.637,0-7.637
			C288.832,341.242,287.583,339.329,285.258,339.329z M282.38,354.547c-1.711,0-3.099-1.388-3.099-3.099s1.388-3.1,3.099-3.1
			s3.099,1.389,3.099,3.1S284.091,354.547,282.38,354.547z"/>
		<path class="st42" d="M297.96,345.131c-3.111-0.35-6.141,1.692-6.918,4.74c-0.776,3.043,0.838,6.254,3.715,7.479
			c1.591,0.682,3.404,0.645,4.99-0.029c0.42-0.178,0.838-0.654,1.146-0.272c0.175,0.217,0.38,0.411,0.609,0.571
			c0.604,0.422,1.369,0.646,2.104,0.646c0-2.264,0-4.527,0-6.792C303.606,348.281,301.143,345.489,297.96,345.131z M297.227,354.547
			c-1.711,0-3.099-1.388-3.099-3.099s1.388-3.1,3.099-3.1s3.099,1.389,3.099,3.1S298.938,354.547,297.227,354.547z"/>
	</g>
</g>
<g id="legal_x3E_legal">
	<g>
		<polyline class="st34" points="390.518,485.307 397.758,485.307 397.758,579.881 329.393,579.881 329.393,485.307 
			373.202,485.307 		"/>
	</g>
	<g>
		<polyline class="st34" points="391.297,586.813 322.932,586.813 322.932,492.239 		"/>
	</g>
	<line class="st34" x1="339.826" y1="499.719" x2="370.994" y2="499.719"/>
	<line class="st34" x1="339.826" y1="509.249" x2="388.552" y2="509.249"/>
	<line class="st34" x1="339.826" y1="518.778" x2="388.552" y2="518.778"/>
	<line class="st34" x1="339.826" y1="528.305" x2="388.552" y2="528.305"/>
	<line class="st34" x1="339.826" y1="537.952" x2="388.552" y2="537.952"/>
	<line class="st34" x1="339.826" y1="547.481" x2="388.552" y2="547.481"/>
	<line class="st34" x1="339.826" y1="557.008" x2="388.552" y2="557.008"/>
	<line class="st34" x1="339.826" y1="566.538" x2="388.552" y2="566.538"/>
	<path class="st34" d="M377.129,479.233c0-2.209-1.791-3.998-3.999-3.998s-3.999,1.789-3.999,3.998v2.311"/>
	<path class="st34" d="M377.129,479.233v23.084l4.848-4.85l4.854,4.85v-23.084c0-2.209-1.791-3.998-3.999-3.998h-9.695"/>
</g>
<g id="dns-record_x3E_dns-check">
	<rect x="290.522" y="155.305" class="st23" width="16.817" height="19.537"/>
	<line class="st23" x1="294.064" y1="160.847" x2="303.672" y2="160.847"/>
	<line class="st23" x1="294.064" y1="169.145" x2="303.672" y2="169.145"/>
	<line class="st23" x1="294.064" y1="164.997" x2="303.672" y2="164.997"/>
</g>
<g id="dns-check_x3E_dns-check">
	<path id="_x3E_fill_10_" class="st2" d="M330.706,169.448c-0.204,0-0.391-0.04-0.559-0.12c-0.172-0.08-0.329-0.187-0.479-0.319
		l-2.822-2.836c-0.142-0.142-0.249-0.304-0.316-0.486c-0.071-0.182-0.106-0.366-0.106-0.552c0-0.186,0.035-0.368,0.106-0.546
		c0.068-0.177,0.177-0.333,0.316-0.466c0.145-0.142,0.307-0.251,0.486-0.326c0.182-0.075,0.366-0.113,0.553-0.113
		c0.188,0,0.368,0.038,0.546,0.113c0.18,0.075,0.337,0.184,0.479,0.326l1.797,1.797l4.54-4.553c0.142-0.142,0.302-0.249,0.479-0.319
		c0.18-0.071,0.361-0.107,0.555-0.107c0.188,0,0.375,0.036,0.553,0.107c0.177,0.071,0.337,0.177,0.479,0.319
		c0.145,0.142,0.245,0.302,0.312,0.479c0.066,0.178,0.1,0.362,0.1,0.553s-0.03,0.375-0.1,0.552c-0.066,0.178-0.17,0.337-0.312,0.479
		l-5.576,5.578c-0.136,0.133-0.286,0.24-0.459,0.319C331.099,169.409,330.91,169.448,330.706,169.448z"/>
	<circle class="st12" cx="331.907" cy="165.428" r="10.275"/>
</g>
<g id="transactions-close_x3E_transactions-close">
	<g id="_x3E_light">
		<line class="st30" x1="413.705" y1="161.066" x2="415.756" y2="159.016"/>
		<polyline class="st30" points="414.155,164.19 410.581,164.19 410.582,160.618 		"/>
		<line class="st30" x1="402.357" y1="172.413" x2="400.307" y2="174.464"/>
		<polyline class="st30" points="401.907,169.289 405.48,169.289 405.48,172.861 		"/>
	</g>
	<line class="st7" x1="411.007" y1="169.714" x2="415.081" y2="173.787"/>
	<polyline class="st7" points="410.582,172.862 410.582,169.288 414.154,169.29 	"/>
	<line class="st7" x1="405.059" y1="163.765" x2="400.984" y2="159.692"/>
	<polyline class="st7" points="405.484,160.617 405.484,164.191 401.911,164.192 	"/>
</g>
<g id="transaction-logs_x3E_transaction-logs">
	<line class="st0" x1="361.214" y1="163.664" x2="377.648" y2="163.664"/>
	<line class="st0" x1="361.214" y1="168.049" x2="375.424" y2="168.049"/>
	<line class="st0" x1="361.214" y1="172.434" x2="379.715" y2="172.434"/>
</g>
<g id="dns-txt_x3E_dns-txt">
	<line class="st10" x1="312.536" y1="418.745" x2="339.701" y2="418.745"/>
	<line class="st10" x1="312.536" y1="423.956" x2="339.701" y2="423.956"/>
	<line class="st10" x1="328.725" y1="426.417" x2="328.725" y2="445.856"/>
	<line class="st10" x1="323.513" y1="426.417" x2="323.513" y2="445.856"/>
	<line class="st10" x1="386.13" y1="418.745" x2="413.296" y2="418.745"/>
	<line class="st10" x1="386.13" y1="423.956" x2="413.296" y2="423.956"/>
	<line class="st10" x1="402.319" y1="426.417" x2="402.319" y2="445.856"/>
	<line class="st10" x1="397.107" y1="426.417" x2="397.107" y2="445.856"/>
	<line class="st10" x1="368.707" y1="434.649" x2="379.913" y2="445.856"/>
	<line class="st10" x1="353.081" y1="418.725" x2="360.379" y2="426.024"/>
	<line class="st10" x1="364.928" y1="438.241" x2="372.227" y2="445.54"/>
	<line class="st10" x1="345.739" y1="418.754" x2="356.602" y2="429.616"/>
	<line class="st10" x1="372.868" y1="418.725" x2="345.739" y2="445.856"/>
	<line class="st10" x1="379.913" y1="418.754" x2="353.128" y2="445.54"/>
</g>
<g id="dns-a_x3E_dns-a">
	<line class="st10" x1="460.901" y1="414.803" x2="448.34" y2="447.305"/>
	<line class="st10" x1="455.491" y1="414.803" x2="442.93" y2="447.305"/>
	<line class="st10" x1="460.471" y1="427.625" x2="468.077" y2="447.305"/>
	<line class="st10" x1="460.901" y1="414.803" x2="473.463" y2="447.305"/>
	<line class="st10" x1="456.145" y1="439.641" x2="465.115" y2="439.641"/>
</g>
</svg>
