<?xml version="1.0" encoding="utf-8"?>
<!-- Generator: Adobe Illustrator 15.0.0, SVG Export Plug-In . SVG Version: 6.00 Build 0)  -->
<!DOCTYPE svg PUBLIC "-//W3C//DTD SVG 1.1//EN" "http://www.w3.org/Graphics/SVG/1.1/DTD/svg11.dtd">
<svg version="1.1" id="Layer_1" xmlns="http://www.w3.org/2000/svg" xmlns:xlink="http://www.w3.org/1999/xlink" x="0px" y="0px"
	 width="683.68px" height="713.61px" viewBox="0 0 683.68 713.61" style="enable-background:new 0 0 683.68 713.61;"
	 xml:space="preserve">
<style type="text/css">
<![CDATA[
	.st0{fill:none;stroke:#24373D;stroke-width:0.75;stroke-miterlimit:10;}
	.st1{fill:none;stroke:#D44763;stroke-width:2.5;stroke-linecap:round;stroke-linejoin:round;stroke-miterlimit:10;}
	.st2{fill:none;stroke:#42B4D9;stroke-width:1.5;stroke-miterlimit:10;}
	.st3{fill:none;stroke:#92A1A8;stroke-miterlimit:10;}
	.st4{fill:none;stroke:#516875;stroke-width:1.7432;stroke-linecap:round;stroke-linejoin:round;stroke-miterlimit:10;}
	.st5{fill:#E8E8E8;}
	.st6{fill:none;stroke:#24373D;stroke-width:1.75;stroke-miterlimit:10;}
	.st7{fill:#1C728C;}
	.st8{fill:#EBEBEB;}
	.st9{fill:#ED5674;}
	.st10{fill:none;stroke:#FFFFFF;stroke-width:2.5;stroke-linecap:round;stroke-linejoin:round;stroke-miterlimit:10;}
	.st11{fill:#8BD2D9;}
	.st12{fill:none;stroke:#24373D;stroke-width:1.75;stroke-linecap:round;stroke-linejoin:round;stroke-miterlimit:10;}
	.st13{font-size:11.4124;}
	.st14{fill:#92A1A8;}
	.st15{font-family:'Museo-700';}
	.st16{fill:#C7DCE6;}
	.st17{fill:none;stroke:#B83357;stroke-width:3;stroke-linecap:round;stroke-linejoin:round;stroke-miterlimit:10;}
	.st18{fill:#FF1D7A;}
	.st19{fill:#FFFFFF;}
	.st20{fill:none;stroke:#24373D;stroke-width:1.5;stroke-miterlimit:10;}
	.st21{fill:#663348;}
	.st22{fill:#9DA9AD;}
	.st23{fill:none;stroke:#206F8C;stroke-width:1.7432;stroke-linecap:round;stroke-linejoin:round;stroke-miterlimit:10;}
	.st24{fill:#369ABA;}
	.st25{fill:none;stroke:#92A1A8;stroke-width:2;stroke-miterlimit:10;}
	.st26{fill:#6CDBFF;}
	.st27{fill:#002A2E;}
	.st28{fill:none;stroke:#3B5864;stroke-width:2;stroke-linecap:round;stroke-miterlimit:10;}
	
		.st29{fill:none;stroke:#516875;stroke-width:1.7432;stroke-linecap:round;stroke-linejoin:round;stroke-miterlimit:10;stroke-dasharray:1,3;}
	.st30{font-size:12;}
	.st31{font-size:13;}
	.st32{font-size:17;}
	.st33{font-size:20;}
	.st34{fill:#3AA8CC;}
	.st35{fill:#3B6488;}
	.st36{fill:#D6D6D6;}
	.st37{fill:#D8F5FF;}
	.st38{fill:none;stroke:#D44763;stroke-width:3;stroke-linecap:round;stroke-linejoin:round;stroke-miterlimit:10;}
	.st39{fill:#730030;}
	.st40{fill:none;stroke:#DFDFDF;stroke-width:1.8;stroke-miterlimit:10;}
	.st41{fill:none;stroke:#C7DCE6;stroke-miterlimit:10;}
	.st42{font-size:13.4263;}
	.st43{fill:#41BAE0;}
	.st44{fill:#42B4D9;}
]]>
</style>
<g id="scaler_x3E_scaler">
	<g>
		<path class="st19" d="M245.961,575.059c0,2.75-2.25,5-5,5H2.278c-2.75,0-5-2.25-5-5v-58.117c0-2.75,2.25-5,5-5h238.683
			c2.75,0,5,2.25,5,5V575.059z"/>
	</g>
	<g>
		<path class="st19" d="M628.117,575.059c0,2.75-2.25,5-5,5H272.229c-2.75,0-5-2.25-5-5v-58.117c0-2.75,2.25-5,5-5h350.888
			c2.75,0,5,2.25,5,5V575.059z"/>
	</g>
	<g id="_x3E_light-gray">
		<g>
			<path class="st5" d="M627.831,758.331c0,3.299-2.7,6-6,6H3.117c-3.3,0-6-2.701-6-6v-150c0-3.301,2.7-6,6-6h618.714
				c3.3,0,6,2.699,6,6V758.331z"/>
			<g>
				<circle class="st5" cx="328.746" cy="558.305" r="7.68"/>
			</g>
			<g>
				<circle class="st5" cx="440.744" cy="558.305" r="7.68"/>
			</g>
			<g>
				<circle class="st5" cx="552.752" cy="558.305" r="7.68"/>
			</g>
			<g>
				<circle class="st5" cx="169.02" cy="558.305" r="7.68"/>
			</g>
			<g>
				<circle class="st5" cx="58.336" cy="558.305" r="7.68"/>
			</g>
		</g>
		
			<rect x="317.781" y="591.601" transform="matrix(0.7071 -0.7071 0.7071 0.7071 -329.4734 408.1754)" class="st5" width="20.387" height="20.393"/>
	</g>
	<g id="_x3E_scales">
		<text id="_x3E_iron" transform="matrix(1 0 0 1 315.3018 539.4897)" class="st27 st15 st31">Iron</text>
		<text transform="matrix(1 0 0 1 414.8506 539.4897)" class="st11 st15 st31">Mercury</text>
		<text transform="matrix(1 0 0 1 524.0908 539.4897)" class="st11 st15 st31">Titanium</text>
		<text transform="matrix(1 0 0 1 127.2061 539.4888)" class="st11 st15 st31">Private Cloud</text>
		<text transform="matrix(1 0 0 1 39.4385 539.4888)" class="st11 st15 st31">Cloud</text>
	</g>
	<circle id="_x3E_iron-dot" class="st35" cx="328.746" cy="558.305" r="3.879"/>
	<g>
		<path class="st19" d="M483.584,637.331c0,5.225-4.5,9.5-10,9.5h-372.22c-5.5,0-10-4.275-10-9.5s4.5-9.5,10-9.5h372.22
			C479.084,627.831,483.584,632.106,483.584,637.331z"/>
	</g>
	<g>
		<path class="st19" d="M483.584,680.331c0,5.225-4.5,9.5-10,9.5h-372.22c-5.5,0-10-4.275-10-9.5s4.5-9.5,10-9.5h372.22
			C479.084,670.831,483.584,675.106,483.584,680.331z"/>
	</g>
	<g>
		<path class="st19" d="M483.584,723.331c0,5.225-4.5,9.5-10,9.5h-372.22c-5.5,0-10-4.275-10-9.5s4.5-9.5,10-9.5h372.22
			C479.084,713.831,483.584,718.106,483.584,723.331z"/>
	</g>
	<g id="_x3E_blue-gray">
		<text transform="matrix(1 0 0 1 34.6943 644.5122)" class="st22 st15 st32">RAM</text>
		<g>
			<path class="st22" d="M166.914,646.831h-65.55c-5.5,0-10-4.275-10-9.5s4.5-9.5,10-9.5h65.55"/>
		</g>
		<text transform="matrix(1 0 0 1 34.6943 687.5122)" class="st22 st15 st32">CPU</text>
		<g>
			<path class="st22" d="M238.914,689.831h-137.55c-5.5,0-10-4.275-10-9.5s4.5-9.5,10-9.5h137.55"/>
		</g>
		<text transform="matrix(1 0 0 1 34.6943 730.5122)" class="st22 st15 st32">Disks</text>
		<g>
			<path class="st22" d="M301.914,732.831h-200.55c-5.5,0-10-4.275-10-9.5s4.5-9.5,10-9.5h200.55"/>
		</g>
		<g>
			<polygon class="st22" points="174.429,659.799 166.916,650.844 159.401,659.799 			"/>
		</g>
		<g>
			<polygon class="st22" points="246.428,704.307 238.915,695.354 231.4,704.307 			"/>
		</g>
		<g>
			<polygon class="st22" points="308.428,750.307 300.914,741.354 293.4,750.307 			"/>
		</g>
		<g id="_x3E_sizes">
			<text transform="matrix(1 0 0 1 498.4785 688.2192)" class="st22 st15 st33">12 Cores</text>
			<text transform="matrix(1 0 0 1 498.4785 731.2192)" class="st22 st15 st33">300 GB x 8</text>
			<g>
				<text transform="matrix(1 0 0 1 498.4785 645.2192)" class="st22 st15 st33">24 GB</text>
			</g>
		</g>
		<text id="_x3E_bare-metal" transform="matrix(1 0 0 1 567.3262 503.9399)" class="st22 st15 st30">Bare Metal</text>
	</g>
</g>
<g id="API_x3E_API_x2C_feature-icon">
	<polyline class="st1" points="16.561,115.057 16.561,86.965 39.318,86.965 39.318,115.057 	"/>
	<polyline class="st1" points="55.465,115.057 55.465,86.965 77.33,86.965 77.33,102.239 62.555,102.239 	"/>
	<line class="st1" x1="23.649" y1="102.239" x2="32.34" y2="102.239"/>
	<line class="st1" x1="92.779" y1="115.057" x2="92.779" y2="83.897"/>
	<polyline class="st1" points="13.492,115.057 13.492,83.897 42.387,83.897 42.387,115.057 	"/>
	<polyline class="st1" points="36.25,115.057 36.25,90.036 19.631,90.036 19.631,115.057 	"/>
	<polyline class="st1" points="52.396,115.057 52.396,83.897 80.4,83.897 80.4,105.305 62.555,105.305 	"/>
	<polyline class="st1" points="62.555,99.168 74.262,99.168 74.262,90.036 58.533,90.036 58.533,115.057 	"/>
	<line class="st1" x1="23.649" y1="99.168" x2="32.34" y2="99.168"/>
	<line class="st1" x1="32.34" y1="105.305" x2="23.649" y2="105.305"/>
	<line class="st1" x1="95.85" y1="83.897" x2="95.85" y2="115.057"/>
	<line class="st1" x1="89.711" y1="115.057" x2="89.711" y2="83.897"/>
</g>
<g id="logs-features_x3E_logs-features_x2C_feature-icon">
	<line class="st1" x1="94.242" y1="148.99" x2="12.581" y2="148.99"/>
	<line class="st1" x1="94.242" y1="159.717" x2="12.581" y2="159.717"/>
	<line class="st1" x1="12.581" y1="154.353" x2="98.298" y2="154.353"/>
	<line class="st1" x1="94.242" y1="170.445" x2="12.581" y2="170.445"/>
	<line class="st1" x1="12.581" y1="165.081" x2="98.298" y2="165.081"/>
	<line class="st1" x1="12.581" y1="175.808" x2="98.298" y2="175.808"/>
	<polyline class="st38" points="13.043,181.615 16.314,184.887 13.043,188.16 	"/>
</g>
<g id="load-balancing_x3E_load-balancing_x2C_feature-icon">
	<g id="_x3E_not-small">
		<polyline class="st1" points="49.925,257.103 32.021,257.103 22.731,266.39 1.244,266.39 		"/>
		<polyline class="st1" points="50.195,284.647 32.021,284.647 22.731,275.359 2.442,275.359 		"/>
		<line class="st1" x1="32.552" y1="270.943" x2="-2.928" y2="270.943"/>
	</g>
	<g id="_x3E_small-only">
		<polyline class="st1" points="77.359,265.156 77.359,252.857 65.386,244.91 65.386,219.074 		"/>
		<polyline class="st1" points="41.672,265.156 41.672,252.587 53.645,244.64 53.645,220.001 		"/>
		<line class="st1" x1="59.195" y1="251.652" x2="59.195" y2="216.172"/>
	</g>
	<polygon class="st1" points="59.195,263.224 50.074,257.438 59.195,251.652 68.318,257.438 	"/>
	<polygon class="st1" points="59.195,289.832 50.074,284.046 59.195,278.259 68.318,284.046 	"/>
	<polygon class="st1" points="41.673,276.729 32.552,270.943 41.673,265.156 50.795,270.943 	"/>
	<polygon class="st1" points="76.284,276.729 67.163,270.943 77.359,265.156 86.481,270.943 	"/>
</g>
<g id="git-deploy_x3E_git-deploy_x2C_feature-icon">
	<g>
		<polyline class="st38" points="184.085,82.56 188.287,78.359 213.505,103.576 188.287,128.794 163.069,103.576 176.734,89.912 		
			"/>
		<line class="st38" x1="180.36" y1="86.286" x2="198.643" y2="104.567"/>
		<line class="st38" x1="188.286" y1="115.286" x2="188.286" y2="94.446"/>
		<circle class="st38" cx="198.643" cy="104.567" r="1.341"/>
		<circle class="st38" cx="188.26" cy="115.26" r="1.34"/>
		<circle class="st38" cx="188.286" cy="94.446" r="1.34"/>
	</g>
	<g>
		<polyline class="st1" points="184.085,82.56 188.287,78.359 213.505,103.576 188.287,128.794 163.069,103.576 176.734,89.912 		
			"/>
		<line class="st1" x1="180.36" y1="86.286" x2="198.643" y2="104.567"/>
		<line class="st1" x1="188.286" y1="115.286" x2="188.286" y2="94.446"/>
		<circle class="st1" cx="198.643" cy="104.567" r="1.341"/>
		<circle class="st1" cx="188.26" cy="115.26" r="1.34"/>
		<circle class="st1" cx="188.286" cy="94.446" r="1.34"/>
	</g>
</g>
<g id="rollback_x3E_rollback_x2C_feature-icon">
	<g>
		<path class="st1" d="M162.678,173.245h45.884c5.303,0,9.616,4.312,9.616,9.616c0,5.301-4.312,9.615-9.616,9.615h-29.759"/>
		<path class="st1" d="M221.276,175.136c-1.079-4.129-4.841-7.187-9.304-7.187h-60.216"/>
		<path class="st1" d="M224.867,169.902c-1.079-4.13-4.842-7.187-9.305-7.187h-47.346"/>
		<line class="st1" x1="210.906" y1="187.24" x2="182.029" y2="187.24"/>
		<line class="st1" x1="212.663" y1="182.318" x2="185.379" y2="182.318"/>
		<line class="st1" x1="151.756" y1="167.949" x2="156.498" y2="173.238"/>
		<polyline class="st1" points="151.756,167.949 157.59,164.719 161.402,162.609 		"/>
	</g>
	<g>
		<path class="st1" d="M162.678,173.245h45.884c5.303,0,9.616,4.312,9.616,9.616c0,5.301-4.312,9.615-9.616,9.615h-29.759"/>
		<path class="st1" d="M221.276,175.136c-1.079-4.129-4.841-7.187-9.304-7.187h-60.216"/>
		<path class="st1" d="M224.867,169.902c-1.079-4.13-4.842-7.187-9.305-7.187h-47.346"/>
		<line class="st1" x1="210.906" y1="187.24" x2="182.029" y2="187.24"/>
		<line class="st1" x1="212.663" y1="182.318" x2="185.379" y2="182.318"/>
		<line class="st1" x1="151.756" y1="167.949" x2="156.498" y2="173.238"/>
		<polyline class="st1" points="151.756,167.949 157.59,164.719 161.402,162.609 		"/>
	</g>
</g>
<g id="new-features-bg_x3E_new-features-bg">
	<polygon class="st38" points="458.203,375.663 291.203,311.722 457.864,251.652 624.865,315.591 	"/>
	<polygon class="st38" points="458.203,384.368 291.203,320.428 457.864,260.358 624.865,324.297 	"/>
	<polygon class="st38" points="458.203,393.075 291.203,329.134 457.864,269.064 624.865,333.003 	"/>
	<polygon class="st38" points="458.203,401.78 291.203,337.84 457.864,277.77 624.865,341.709 	"/>
	<polygon class="st38" points="458.203,410.487 291.203,346.546 457.864,286.476 624.865,350.416 	"/>
	<polygon class="st38" points="458.203,419.192 291.203,355.252 457.864,295.182 624.865,359.122 	"/>
	<polygon class="st38" points="458.203,427.899 291.203,363.958 457.864,303.888 624.865,367.829 	"/>
	<polygon class="st38" points="458.203,436.604 291.203,372.665 457.864,312.594 624.865,376.534 	"/>
	<polygon class="st38" points="458.203,445.309 291.203,381.372 457.864,321.3 624.865,385.241 	"/>
	<polygon class="st38" points="458.203,454.016 291.203,390.077 457.864,330.006 624.865,393.946 	"/>
	<polygon class="st38" points="458.203,462.721 291.203,398.784 457.864,338.712 624.865,402.653 	"/>
</g>
<g id="mini-scaler_x3E_scaler_x2C_mini-scaler">
	<g>
		<path class="st19" d="M283.42,856.315c0,2.928-2.396,5.322-5.325,5.322H3.942c-2.929,0-5.325-2.395-5.325-5.322v-51.111
			c0-2.928,2.396-5.324,5.325-5.324h274.153c2.929,0,5.325,2.396,5.325,5.324V856.315z"/>
	</g>
	<g id="_x3E_light-gray_1_">
		<g>
			<path class="st5" d="M284.277,979.313c0,2.217-1.812,4.027-4.028,4.027H2.645c-2.215,0-4.028-1.811-4.028-4.027V878.618
				c0-2.217,1.812-4.029,4.028-4.029H280.25c2.215,0,4.028,1.812,4.028,4.029L284.277,979.313L284.277,979.313z"/>
		</g>
		<g>
			<circle class="st8" cx="128.521" cy="842.98" r="8.435"/>
		</g>
		<g>
			<circle class="st8" cx="236.333" cy="842.98" r="8.435"/>
		</g>
		<g>
			<circle class="st8" cx="33.408" cy="842.981" r="8.434"/>
		</g>
		
			<rect x="229.601" y="867.403" transform="matrix(0.7072 -0.707 0.707 0.7072 -548.8778 423.1545)" class="st5" width="13.688" height="13.692"/>
	</g>
	<circle id="_x3E_iron-dot_1_" class="st35" cx="236.333" cy="842.98" r="5.237"/>
	<g id="_x3E_scales_1_">
		<text transform="matrix(1 0 0 1 86.7461 822.3208)" class="st11 st15 st31">Private Cloud</text>
		<text id="_x3E_iron_1_" transform="matrix(1 0 0 1 203.8213 822.3208)" class="st27 st15 st31">Bare Metal</text>
		<text transform="matrix(1 0 0 1 14.4922 822.3208)" class="st11 st15 st31">Cloud</text>
	</g>
	<g>
		<path class="st19" d="M197.364,898.084c0,3.506-3.021,6.377-6.713,6.377H52.277c-3.692,0-6.713-2.871-6.713-6.377
			c0-3.508,3.021-6.379,6.713-6.379h138.374C194.343,891.708,197.364,894.577,197.364,898.084z"/>
	</g>
	<g>
		<path class="st19" d="M197.364,926.952c0,3.508-3.021,6.377-6.713,6.377H52.277c-3.692,0-6.713-2.869-6.713-6.377
			s3.021-6.377,6.713-6.377h138.374C194.343,920.575,197.364,923.444,197.364,926.952z"/>
	</g>
	<g>
		<path class="st19" d="M197.364,955.817c0,3.508-3.021,6.379-6.713,6.379H52.277c-3.692,0-6.713-2.871-6.713-6.379
			s3.021-6.377,6.713-6.377h138.374C194.343,949.44,197.364,952.309,197.364,955.817z"/>
	</g>
	<g id="_x3E_blue-gray_1_">
		<text transform="matrix(1 0 0 1 7.5215 902.9067)" class="st22 st15 st13">RAM</text>
		<text transform="matrix(1 0 0 1 207.3633 903.3813)" class="st22 st15 st42">24 GB</text>
		<g>
			<path class="st22" d="M70.282,904.461H52.277c-3.692,0-6.713-2.871-6.713-6.377c0-3.508,3.021-6.379,6.713-6.379h18.005"/>
		</g>
		<text transform="matrix(1 0 0 1 7.5215 931.772)" class="st22 st15 st13">CPU</text>
		<text transform="matrix(1 0 0 1 207.3633 932.2466)" class="st22 st15 st42">12 Cores</text>
		<g>
			<path class="st22" d="M118.617,933.329h-66.34c-3.692,0-6.713-2.869-6.713-6.377s3.021-6.377,6.713-6.377h66.34"/>
		</g>
		<text transform="matrix(1 0 0 1 7.5215 960.6401)" class="st22 st15 st13">Disks</text>
		<text transform="matrix(1 0 0 1 207.3633 961.1138)" class="st22 st15 st42">300 GB x 8</text>
		<g>
			<path class="st22" d="M160.91,962.196H52.277c-3.692,0-6.713-2.871-6.713-6.379s3.021-6.377,6.713-6.377H160.91"/>
		</g>
		<g>
			<polygon class="st22" points="75.328,913.168 70.283,907.159 65.238,913.168 			"/>
		</g>
		<g>
			<polygon class="st22" points="123.661,943.047 118.617,937.038 113.573,943.047 			"/>
		</g>
		<g>
			<polygon class="st22" points="165.283,973.928 160.238,967.917 155.194,973.928 			"/>
		</g>
	</g>
</g>
<g id="app-custom_x3E_app-demo_x2C_app-custom">
	<polyline class="st0" points="943.129,84.77 935.666,84.77 931.943,78.309 924.48,91.231 920.752,84.77 913.289,84.77 
		920.752,97.691 913.289,110.614 920.752,110.614 924.48,104.154 931.938,117.074 935.666,110.614 943.129,110.614 	"/>
	<polyline class="st0" points="935.666,84.77 931.943,91.231 924.48,78.309 920.752,84.77 	"/>
	<polyline class="st0" points="935.666,110.614 931.938,104.153 924.48,117.074 920.752,110.614 	"/>
	<polyline class="st0" points="924.48,104.154 909.561,104.154 913.289,97.691 909.556,91.231 924.48,91.231 	"/>
	<line class="st0" x1="913.289" y1="97.691" x2="920.752" y2="97.691"/>
	<polygon id="_x3E_outline" class="st20" points="917.019,117.074 939.4,117.074 943.129,110.614 939.4,104.153 924.48,104.154 
		920.752,97.693 924.48,91.231 939.4,91.231 943.129,84.77 939.4,78.309 917.019,78.309 905.827,97.693 	"/>
</g>
<g id="app-startup_x3E_app-demo">
	<polyline class="st6" points="653.171,102.47 648.396,97.693 643.614,102.47 	"/>
	<circle class="st6" cx="666.237" cy="99.23" r="2.414"/>
	<circle class="st6" cx="666.239" cy="99.23" r="2.414"/>
	<circle class="st6" cx="630.877" cy="99.23" r="2.413"/>
	<rect x="624.075" y="92.43" class="st6" width="48.963" height="23.782"/>
	<line class="st6" x1="630.806" y1="111.247" x2="666.286" y2="111.247"/>
	<line class="st6" x1="630.806" y1="107.698" x2="666.286" y2="107.698"/>
	<line class="st6" x1="676.587" y1="106.516" x2="676.587" y2="96.602"/>
	<line class="st6" x1="673.038" y1="106.516" x2="673.038" y2="96.602"/>
	<line class="st6" x1="623.888" y1="106.516" x2="623.888" y2="96.602"/>
	<line class="st6" x1="620.341" y1="106.516" x2="620.341" y2="96.602"/>
	<path class="st12" d="M631.726,91.994c-1.965,0.15-2.463-4.438,1.271-4.127c0.188-2.494,2.045-4.445,5.729-3.41
		c0,0,1.371-5.986,6.574-2.577c0.521-1.335,5.547-5.238,8.115,0.616c2.672-0.616,6.986-0.924,7.396,3.493
		c2.875-2.876,5.461-0.553,5.271,2.837c3.896-2.055,2.229,3.583,2.229,3.583"/>
	<line class="st6" x1="648.646" y1="72.807" x2="648.646" y2="65.527"/>
	<line class="st6" x1="661.325" y1="75.452" x2="664.235" y2="68.777"/>
	<line class="st6" x1="635.97" y1="75.452" x2="633.058" y2="68.777"/>
	<path class="st6" d="M645.466,81.446c0,0,3.146-0.101,5.379,4.06c2.233,4.161,4.363,1.826,5.582,1.218"/>
	<path class="st6" d="M655.614,82.258c0,0-1.021,5.479,1.826,6.493c2.842,1.016,3.146,1.524,3.146,3.554"/>
	<path class="st6" d="M637.733,84.46c-1.812,0.362-2.326,6.667,2.312,7.855"/>
	<path class="st6" d="M658.948,89.289c3.709,1.933,4.42-4.434,7.201-1.884"/>
	<path class="st6" d="M638.692,91.851c0,0,0.104-5.009,4.396-5.25c4.283-0.241,1.509,5.369,5.732,5.369
		c4.223,0,3.678-4.766,3.678-4.766"/>
	<path class="st6" d="M643.991,86.726c0,0-1.365-6.522,5.324-3.179"/>
</g>
<g id="app-business_x3E_app-demo">
	<rect x="715.171" y="96.383" class="st6" width="48.965" height="19.829"/>
	<line class="st6" x1="717.862" y1="108.486" x2="722.796" y2="113.421"/>
	<line class="st6" x1="717.862" y1="103.683" x2="727.468" y2="113.29"/>
	<line class="st6" x1="733.528" y1="88.194" x2="728.532" y2="93.192"/>
	<line class="st6" x1="738.104" y1="88.194" x2="733.106" y2="93.192"/>
	<line class="st6" x1="742.679" y1="88.194" x2="737.683" y2="93.192"/>
	<line class="st6" x1="747.253" y1="88.194" x2="742.255" y2="93.192"/>
	<line class="st6" x1="751.827" y1="88.194" x2="746.829" y2="93.192"/>
	<line class="st6" x1="756.401" y1="88.194" x2="751.405" y2="93.192"/>
	<line class="st6" x1="760.976" y1="88.194" x2="755.979" y2="93.192"/>
	<polyline class="st6" points="763.804,88.609 763.804,92.739 760.81,92.739 	"/>
	<line class="st6" x1="717.862" y1="98.88" x2="732.106" y2="113.126"/>
	<line class="st6" x1="739.171" y1="86.319" x2="740.743" y2="72.375"/>
	<line class="st6" x1="745.05" y1="86.319" x2="743.479" y2="72.375"/>
	<line class="st6" x1="751.81" y1="86.319" x2="753.382" y2="72.375"/>
	<line class="st6" x1="757.688" y1="86.319" x2="756.116" y2="72.375"/>
	<rect x="738.046" y="102.285" class="st6" width="1.562" height="1.559"/>
	<rect x="744.495" y="102.285" class="st6" width="1.561" height="1.559"/>
	<rect x="750.944" y="102.285" class="st6" width="1.561" height="1.559"/>
	<rect x="757.396" y="102.285" class="st6" width="1.559" height="1.559"/>
	<rect x="738.046" y="108.741" class="st6" width="1.562" height="1.559"/>
	<rect x="744.495" y="108.741" class="st6" width="1.561" height="1.559"/>
	<rect x="750.944" y="108.741" class="st6" width="1.561" height="1.559"/>
	<rect x="757.396" y="108.741" class="st6" width="1.559" height="1.559"/>
	<line class="st6" x1="731.915" y1="108.357" x2="731.915" y2="98.144"/>
	<line class="st6" x1="728.552" y1="105.148" x2="728.552" y2="98.144"/>
	<line class="st6" x1="724.952" y1="101.509" x2="724.952" y2="98.144"/>
</g>
<g id="app-enterprise_x3E_app-demo">
	<polyline class="st6" points="849.246,92.315 853.662,96.731 844.293,106.099 840.4,109.993 836.33,105.923 830.77,100.364 
		827.137,96.731 831.551,92.318 	"/>
	
		<rect x="836.404" y="80.168" transform="matrix(-0.707 -0.7072 0.7072 -0.707 1374.8944 737.5328)" class="st6" width="7.621" height="7.625"/>
	<line class="st6" x1="851.277" y1="99.675" x2="830.322" y2="99.675"/>
	<polyline class="st6" points="828.359,98.419 819.568,102.466 814.893,118.233 820.178,118.233 827.137,108.326 837.502,107.093 	
		"/>
	<polyline class="st6" points="852.441,98.419 861.23,102.466 865.91,118.233 860.623,118.233 853.662,108.326 843.293,107.101 	"/>
	<line class="st6" x1="840.4" y1="72.624" x2="840.4" y2="75.646"/>
	<polyline class="st6" points="845.152,84.477 856.758,81.274 869.738,87.935 867.412,89.985 854.002,87.564 844.896,96.668 
		842.219,93.99 	"/>
	<polyline class="st6" points="835.648,84.478 824.041,81.274 811.062,87.935 813.387,89.985 826.797,87.564 835.902,96.668 
		838.582,93.99 	"/>
	<line class="st6" x1="838.467" y1="80.834" x2="842.488" y2="80.834"/>
	<line class="st6" x1="837.586" y1="81.685" x2="843.371" y2="81.685"/>
	<line class="st6" x1="818.652" y1="112.609" x2="820.691" y2="112.609"/>
	<line class="st6" x1="819.971" y1="109.149" x2="823.266" y2="109.149"/>
	<line class="st6" x1="821.287" y1="105.69" x2="824.822" y2="105.69"/>
	<line class="st6" x1="862.148" y1="112.609" x2="860.107" y2="112.609"/>
	<line class="st6" x1="860.83" y1="109.149" x2="857.535" y2="109.149"/>
	<line class="st6" x1="859.512" y1="105.69" x2="855.979" y2="105.69"/>
	<line class="st6" x1="836.33" y1="82.266" x2="844.629" y2="82.266"/>
	<line class="st6" x1="839.389" y1="99.688" x2="838.867" y2="105.063"/>
	<line class="st6" x1="841.969" y1="99.688" x2="842.49" y2="105.063"/>
</g>
<g id="app-pet-project_x3E_app-demo">
	
		<rect x="545.531" y="89.028" transform="matrix(-0.7071 0.7071 -0.7071 -0.7071 1027.5431 -219.9665)" class="st6" width="27.594" height="27.599"/>
	<polyline class="st6" points="552.961,95.685 559.34,89.305 565.723,95.685 	"/>
	<polygon class="st6" points="559.342,106.95 555.229,102.837 563.454,102.837 	"/>
	<polygon class="st6" points="581.213,85.099 568.008,85.099 581.213,98.307 	"/>
	<polygon class="st6" points="577.295,89.018 571.927,89.018 577.295,94.387 	"/>
	<polygon class="st6" points="537.468,85.099 550.674,85.099 537.468,98.307 	"/>
	<polygon class="st6" points="541.387,89.018 546.755,89.018 541.387,94.387 	"/>
	<circle class="st6" cx="569.623" cy="100.813" r="2.078"/>
	<circle class="st6" cx="548.903" cy="100.813" r="2.079"/>
	<polyline class="st6" points="559.342,106.438 559.342,111.243 567.959,119.861 569.862,117.958 	"/>
	<polyline class="st6" points="559.342,106.438 559.342,111.243 550.723,119.861 548.554,117.692 	"/>
	<line class="st6" x1="566.829" y1="110.097" x2="580.666" y2="110.097"/>
	<line class="st6" x1="568.545" y1="113.149" x2="580.666" y2="113.149"/>
	<line class="st6" x1="550.139" y1="113.149" x2="538.017" y2="113.149"/>
	<line class="st6" x1="551.851" y1="110.097" x2="538.012" y2="110.097"/>
</g>
<g id="app-tinker_x3E_app-demo">
	<circle class="st6" cx="471.928" cy="78.2" r="4.288"/>
	<path class="st6" d="M458.227,120.977c-1.688,0-3.005-1.158-1.503-3.475c2.604-4.014,11.396-21.359,12.236-22.461
		c1.411-1.834,1.39-3.113,0.231-3.113c-1.159,0,0,0-2.315,0s-2.085-3.242,0-3.242c1.925,0,13.662,0,15.746,0s2.312,3.242,0,3.242
		c-2.315,0-1.157,0-2.315,0c-1.146,0-0.604,1.827,0.231,3.113c0.763,1.162,9.632,18.447,12.235,22.461
		c1.502,2.316,0.188,3.475-1.517,3.475C488.83,120.977,460.667,120.977,458.227,120.977z"/>
	<line class="st6" x1="466.234" y1="108.004" x2="461.877" y2="116.276"/>
	<line class="st6" x1="471.426" y1="105.952" x2="465.986" y2="116.276"/>
	<line class="st6" x1="474.577" y1="107.768" x2="470.096" y2="116.276"/>
	<line class="st6" x1="479.643" y1="105.952" x2="474.204" y2="116.276"/>
	<line class="st6" x1="482.679" y1="107.987" x2="478.312" y2="116.276"/>
	<line class="st6" x1="485.021" y1="111.338" x2="482.421" y2="116.276"/>
	<line class="st6" x1="487.588" y1="114.268" x2="486.53" y2="116.276"/>
</g>
<g id="add-vps_x3E_roll-your-own">
	<g>
		<circle class="st23" cx="633.546" cy="167.575" r="8.663"/>
	</g>
</g>
<g id="add-web_x3E_roll-your-own">
	<g>
		<polygon class="st23" points="464.275,176.236 455.321,168.989 464.275,156.049 		"/>
		<polyline class="st23" points="464.275,176.236 473.229,168.989 464.275,156.049 		"/>
	</g>
</g>
<g id="add-worker_x3E_roll-your-own">
	<g>
		<polyline class="st23" points="535.702,161.716 545.069,154.818 553.908,161.86 		"/>
		<polyline class="st23" points="544.662,177.181 535.702,170.031 535.702,161.716 544.662,168.867 		"/>
		<polygon class="st23" points="544.662,177.181 553.908,170.175 553.908,161.86 544.662,168.867 		"/>
	</g>
</g>
<g id="add-db_x3E_roll-your-own">
	<g>
		<ellipse class="st23" cx="502.3" cy="159.472" rx="6.826" ry="4.417"/>
		<path class="st23" d="M509.126,173.812c0,2.44-3.057,4.417-6.826,4.417c-3.769,0-6.826-1.978-6.826-4.417"/>
		<path class="st23" d="M509.126,166.699c0,2.439-3.057,4.417-6.826,4.417c-3.769,0-6.826-1.978-6.826-4.417"/>
		<line class="st23" x1="509.126" y1="159.472" x2="509.126" y2="173.812"/>
		<line class="st23" x1="495.474" y1="173.812" x2="495.474" y2="159.472"/>
	</g>
</g>
<g id="add-cache_x3E_roll-your-own">
	<g>
		<polygon class="st23" points="590.498,169.868 581.537,162.717 581.537,171.032 590.498,178.182 		"/>
		<polyline class="st23" points="593.352,173.036 595.335,174.619 595.335,166.305 586.375,159.154 586.375,162.717 		"/>
		<polyline class="st23" points="598.189,169.473 600.173,171.056 600.173,162.742 591.213,155.591 591.213,159.154 		"/>
	</g>
</g>
<g id="flexible-and-tierless_x3E_flexible">
	<rect x="693.163" y="160.716" class="st2" width="11.277" height="11.276"/>
	<rect x="725.658" y="155.839" class="st2" width="21.03" height="21.031"/>
	<rect x="878.142" y="160.716" class="st2" width="11.275" height="11.276"/>
	<rect x="835.893" y="155.839" class="st2" width="21.03" height="21.031"/>
	<rect x="771.241" y="146.305" class="st2" width="40.099" height="40.101"/>
</g>
<g id="front-logo_x3E_front-logo">
	<g>
		<path class="st7" d="M807.775-13.586c0.893,0,1.719,0.165,2.479,0.496c0.771,0.332,1.439,0.789,2.021,1.372
			c0.584,0.583,1.041,1.259,1.369,2.023c0.323,0.767,0.489,1.595,0.489,2.487c0,0.868-0.166,1.691-0.489,2.469
			c-0.328,0.777-0.785,1.458-1.369,2.041c-0.582,0.583-1.269,1.041-2.021,1.372c-0.768,0.332-1.596,0.498-2.479,0.498
			c-1.029,0-1.955-0.217-2.779-0.652v1.543V0.44c-0.066,0.664-0.211,1.229-0.428,1.698c-0.217,0.469-0.486,0.846-0.812,1.132
			c-0.312,0.286-0.688,0.497-1.098,0.634c-0.41,0.138-0.836,0.206-1.271,0.206V-7.208c0-1.326,0.377-2.526,1.146-3.602
			c-0.73-0.206-1.271-0.571-1.604-1.098c-0.332-0.525-0.498-1.085-0.498-1.68h7.354L807.775-13.586L807.775-13.586z M810.896-7.208
			c0-0.412-0.101-0.807-0.271-1.185c-0.172-0.377-0.396-0.708-0.688-0.994c-0.284-0.286-0.614-0.515-0.991-0.686
			c-0.379-0.171-0.773-0.257-1.188-0.257c-0.4,0-0.809,0.086-1.186,0.257c-0.377,0.171-0.709,0.399-0.994,0.686
			c-0.287,0.286-0.516,0.617-0.688,0.994c-0.176,0.377-0.263,0.772-0.263,1.185c0,0.41,0.087,0.806,0.263,1.183
			c0.178,0.377,0.396,0.709,0.688,0.995c0.285,0.286,0.617,0.514,0.994,0.688c0.377,0.172,0.771,0.258,1.186,0.258
			s0.812-0.086,1.188-0.258c0.377-0.171,0.707-0.398,0.991-0.688c0.275-0.286,0.517-0.618,0.688-0.995S810.896-6.797,810.896-7.208z
			 M829.004-7.208v6.79c-0.549,0-1.086-0.12-1.611-0.36c-0.521-0.24-0.938-0.6-1.27-1.08c-0.525,0.32-1.08,0.572-1.662,0.754
			c-0.584,0.183-1.195,0.274-1.836,0.274c-0.869,0-1.691-0.166-2.469-0.498c-0.777-0.331-1.459-0.789-2.041-1.372
			c-0.584-0.583-1.041-1.264-1.373-2.041c-0.33-0.778-0.496-1.601-0.496-2.469c0-0.893,0.166-1.721,0.496-2.487
			c0.332-0.767,0.789-1.44,1.373-2.021c0.582-0.583,1.264-1.04,2.041-1.372c0.771-0.331,1.6-0.497,2.469-0.497
			s1.691,0.166,2.469,0.497c0.777,0.332,1.459,0.789,2.041,1.372c0.584,0.583,1.041,1.258,1.373,2.021
			C828.838-8.928,829.004-8.1,829.004-7.208z M822.625-10.329c-0.436,0-0.84,0.086-1.217,0.257
			c-0.379,0.171-0.709,0.399-0.994,0.688c-0.287,0.286-0.51,0.617-0.67,0.994s-0.24,0.772-0.24,1.185c0,0.41,0.08,0.806,0.24,1.183
			s0.383,0.709,0.67,0.995c0.285,0.286,0.615,0.514,0.994,0.686c0.377,0.172,0.781,0.258,1.217,0.258
			c0.846,0,1.561-0.31,2.145-0.927c0.582-0.618,0.873-1.349,0.873-2.194c0-0.847-0.291-1.578-0.873-2.195
			C824.186-10.021,823.471-10.329,822.625-10.329z M843.785-7.448v0.24v7.271V0.44c-0.092,1.303-0.48,2.241-1.166,2.812
			c-0.688,0.571-1.479,0.856-2.365,0.856V4.041c-0.207,0.046-0.412,0.046-0.617,0c-0.207-0.046-0.379-0.108-0.516-0.188
			s-0.223-0.154-0.258-0.223c-0.033-0.068,0.006-0.114,0.121-0.138c0.271-0.091,0.553-0.325,0.84-0.702
			c0.285-0.378,0.43-1.023,0.43-1.938V-1.48c-0.916,0.435-1.865,0.652-2.848,0.652c-0.896,0-1.729-0.166-2.504-0.498
			c-0.777-0.331-1.457-0.789-2.041-1.372c-0.582-0.583-1.039-1.264-1.371-2.041c-0.332-0.778-0.498-1.601-0.498-2.469
			c0-0.893,0.166-1.721,0.498-2.487c0.332-0.766,0.789-1.44,1.371-2.023c0.584-0.583,1.264-1.04,2.041-1.372
			c0.771-0.331,1.604-0.497,2.504-0.497h0.309h6.207c0,0.526-0.113,1.013-0.342,1.458c-0.229,0.446-0.584,0.807-1.064,1.08
			C843.293-10.042,843.717-8.843,843.785-7.448z M837.406-10.329c-0.854,0-1.566,0.309-2.16,0.926
			c-0.596,0.618-0.893,1.35-0.893,2.195c0,0.845,0.297,1.576,0.893,2.194c0.594,0.617,1.314,0.927,2.16,0.927
			c0.434,0,0.84-0.086,1.219-0.258c0.377-0.171,0.701-0.398,0.977-0.688c0.273-0.286,0.492-0.618,0.652-0.995
			c0.158-0.377,0.238-0.772,0.238-1.183c0-0.412-0.08-0.807-0.238-1.185c-0.16-0.377-0.379-0.708-0.652-0.994
			c-0.271-0.286-0.6-0.515-0.977-0.686C838.246-10.243,837.84-10.329,837.406-10.329z M843.785-7.448v0.24v-0.344V-7.448z
			 M858.635-7.208c0,0.868-0.166,1.691-0.496,2.469c-0.332,0.777-0.789,1.458-1.373,2.041c-0.582,0.583-1.264,1.041-2.039,1.372
			c-0.771,0.332-1.602,0.498-2.471,0.498c-0.891,0-1.727-0.166-2.504-0.498c-0.777-0.331-1.457-0.789-2.039-1.372
			c-0.584-0.583-1.041-1.263-1.373-2.041c-0.33-0.777-0.496-1.601-0.496-2.469c0-0.893,0.166-1.721,0.496-2.487
			c0.332-0.766,0.789-1.44,1.373-2.023c0.582-0.583,1.262-1.04,2.039-1.372c0.777-0.331,1.613-0.496,2.504-0.496
			c0.869,0,1.691,0.165,2.471,0.496c0.775,0.332,1.457,0.789,2.039,1.372c0.584,0.583,1.041,1.259,1.373,2.023
			C858.469-8.928,858.635-8.1,858.635-7.208z M852.256-10.329c-0.891,0-1.635,0.309-2.229,0.926
			c-0.604,0.618-0.896,1.35-0.896,2.195c0,0.845,0.297,1.576,0.896,2.194c0.594,0.617,1.338,0.927,2.229,0.927
			c0.412,0,0.801-0.086,1.166-0.258c0.365-0.171,0.688-0.398,0.961-0.688c0.273-0.286,0.492-0.618,0.65-0.995
			c0.16-0.377,0.24-0.772,0.24-1.183c0-0.412-0.08-0.807-0.24-1.185c-0.158-0.377-0.377-0.708-0.65-0.994
			c-0.271-0.286-0.596-0.515-0.961-0.686C853.057-10.245,852.668-10.329,852.256-10.329z M873.383-15.268v8.061v-0.344v7.134
			c-0.549,0-1.076-0.12-1.578-0.36c-0.504-0.24-0.926-0.6-1.27-1.08c-0.479,0.32-1.021,0.572-1.611,0.754
			c-0.596,0.183-1.234,0.274-1.92,0.274c-0.869,0-1.693-0.166-2.471-0.498c-0.777-0.331-1.457-0.789-2.041-1.372
			c-0.582-0.583-1.039-1.264-1.371-2.041c-0.33-0.777-0.496-1.601-0.496-2.469c0-0.893,0.166-1.721,0.496-2.487
			c0.332-0.767,0.789-1.44,1.371-2.023c0.584-0.583,1.264-1.04,2.041-1.372c0.771-0.331,1.602-0.497,2.471-0.497
			c0.525,0,1.021,0.058,1.49,0.172s0.932,0.263,1.391,0.445v-6.379c0.438,0,0.855,0.068,1.271,0.206
			c0.408,0.137,0.771,0.349,1.1,0.635c0.318,0.286,0.576,0.663,0.771,1.131c0.188,0.47,0.312,1.035,0.354,1.698L873.383-15.268
			L873.383-15.268z M870.125-7.208c0-0.412-0.08-0.807-0.24-1.185c-0.16-0.377-0.383-0.708-0.67-0.994
			c-0.285-0.286-0.617-0.515-0.994-0.686c-0.377-0.171-0.783-0.257-1.217-0.257c-0.848,0-1.561,0.309-2.145,0.926
			c-0.582,0.618-0.875,1.35-0.875,2.195c0,0.845,0.293,1.576,0.875,2.194c0.584,0.617,1.297,0.927,2.145,0.927
			c0.438,0,0.84-0.086,1.217-0.258c0.377-0.171,0.709-0.398,0.994-0.686c0.287-0.286,0.51-0.618,0.67-0.995
			S870.125-6.797,870.125-7.208z M869.232,12.409V4.212h2.709c0.562,0,0.979,0.08,1.229,0.239c0.252,0.16,0.457,0.366,0.617,0.617
			c0.113,0.206,0.188,0.417,0.238,0.635c0.047,0.218,0.062,0.349,0.062,0.396c0,0.525-0.104,0.965-0.325,1.32
			c-0.22,0.354-0.591,0.588-1.104,0.703c0.596,0.068,1.021,0.273,1.277,0.617c0.271,0.344,0.396,0.801,0.396,1.372
			c0,0.526-0.086,0.938-0.256,1.235c-0.174,0.297-0.379,0.525-0.619,0.686c-0.237,0.16-0.508,0.264-0.807,0.31
			c-0.308,0.045-0.562,0.067-0.789,0.067H869.232L869.232,12.409z M870.363,7.71h1.51c0.801-0.069,1.201-0.526,1.201-1.372
			c0-0.32-0.104-0.596-0.312-0.823c-0.205-0.229-0.521-0.343-0.959-0.343h-1.438L870.363,7.71L870.363,7.71z M870.363,11.448h1.438
			c0.549,0,0.938-0.143,1.166-0.429c0.229-0.286,0.342-0.589,0.342-0.909c0-0.64-0.176-1.052-0.521-1.233
			c-0.354-0.185-0.816-0.274-1.396-0.274h-1.021L870.363,11.448L870.363,11.448z M873.383-7.791v0.171v-0.069V-7.791z
			 M873.383-7.791v0.171v-0.069V-7.791z M873.383-7.689v-0.103v0.171V-7.689z M873.383-7.551v0.652v-0.309V-7.551z M888.232-7.208
			v0.137v6.653c-0.562,0-1.086-0.12-1.613-0.36c-0.525-0.24-0.947-0.6-1.271-1.08c-0.521,0.32-1.065,0.572-1.649,0.754
			c-0.582,0.183-1.195,0.274-1.834,0.274c-0.869,0-1.693-0.166-2.479-0.498c-0.771-0.331-1.457-0.789-2.039-1.372
			c-0.584-0.583-1.041-1.264-1.373-2.041c-0.332-0.777-0.494-1.601-0.494-2.469c0-0.893,0.162-1.721,0.494-2.487
			c0.332-0.766,0.789-1.44,1.373-2.021c0.582-0.583,1.271-1.04,2.039-1.372c0.775-0.331,1.604-0.497,2.479-0.497
			c0.854,0,1.688,0.166,2.469,0.497c0.771,0.332,1.457,0.789,2.041,1.372c0.582,0.583,1.039,1.258,1.371,2.021
			C888.066-8.928,888.232-8.1,888.232-7.208z M876.023,9.391V6.75c0-0.847,0.223-1.51,0.668-1.989
			c0.438-0.479,1.104-0.72,1.973-0.72c0.846,0,1.479,0.239,1.902,0.72c0.424,0.479,0.635,1.143,0.635,1.989v2.641
			c0,1.166-0.211,1.989-0.635,2.469c-0.438,0.48-1.062,0.721-1.902,0.721c-0.869,0-1.525-0.24-1.973-0.721
			C876.246,11.38,876.023,10.557,876.023,9.391z M880.104,9.459V6.681c0-0.412-0.062-0.738-0.188-0.979
			c-0.129-0.239-0.271-0.417-0.432-0.531c-0.16-0.115-0.318-0.184-0.479-0.206c-0.16-0.023-0.271-0.035-0.342-0.035
			s-0.189,0.011-0.361,0.035c-0.172,0.021-0.342,0.091-0.514,0.206c-0.174,0.113-0.32,0.292-0.445,0.531
			c-0.127,0.24-0.188,0.566-0.188,0.979v2.778c0,0.868,0.121,1.458,0.354,1.766c0.24,0.309,0.623,0.463,1.148,0.463
			c0.479,0,0.842-0.154,1.08-0.463C879.982,10.917,880.104,10.328,880.104,9.459z M881.854-10.329c-0.397,0-0.807,0.086-1.184,0.257
			c-0.377,0.171-0.709,0.399-0.994,0.688c-0.287,0.286-0.516,0.617-0.688,0.994s-0.258,0.772-0.258,1.185
			c0,0.41,0.086,0.806,0.258,1.183s0.396,0.709,0.688,0.995c0.285,0.286,0.617,0.514,0.994,0.686
			c0.377,0.172,0.771,0.258,1.184,0.258c0.41,0,0.812-0.086,1.188-0.258c0.379-0.171,0.709-0.398,0.996-0.686
			c0.285-0.286,0.514-0.618,0.686-0.995s0.259-0.772,0.259-1.183c0-0.412-0.087-0.807-0.259-1.185
			c-0.172-0.377-0.396-0.708-0.686-0.994c-0.287-0.286-0.617-0.515-0.996-0.688C882.658-10.243,882.266-10.329,881.854-10.329z
			 M888.232,12.409h-1.271l-1.854-3.498l-1.816,3.498h-1.133l2.332-4.218l-2.229-3.979h1.201l1.646,3.189l1.771-3.189h1.104
			l-2.158,3.979L888.232,12.409z"/>
	</g>
	<g id="_x3E_ice">
		<polygon id="_x3E_c" class="st43" points="782.785,-18.31 774.373,-22.95 767.475,-19.114 764.492,-9.76 764.492,-7.586 
			769.934,3.068 774.707,4.482 778.816,3.445 784.586,-3.75 784.586,-13.363 		"/>
		<polyline id="_x3E_a" class="st37" points="782.785,-18.31 782.496,-16.024 778.201,-13.363 769.934,-14.122 767.475,-19.114 
			774.373,-22.95 782.785,-18.31 		"/>
		<polygon id="_x3E_g" class="st26" points="767.475,-19.114 764.492,-9.76 769.934,-14.122 		"/>
		<polygon id="_x3E_f" class="st43" points="774.707,-2.604 769.934,0.042 764.492,-7.586 764.492,-9.76 769.934,-14.122 		"/>
		<polygon id="_x3E_h" class="st26" points="774.707,-2.604 778.201,-13.363 769.934,-14.122 		"/>
		<polygon id="_x3E_e" class="st24" points="764.492,-7.586 769.934,3.068 769.934,0.042 		"/>
		<polygon id="_x3E_d" class="st34" points="769.934,3.068 774.707,4.482 774.707,-2.604 769.934,0.042 		"/>
		<polygon id="_x3E_b_2_" class="st26" points="784.586,-13.363 782.785,-18.31 782.496,-16.024 		"/>
	</g>
</g>
<g id="add-service_x3E_add-service">
	<circle id="_x3E_fill_1_" class="st19" cx="471.405" cy="27.84" r="8.323"/>
	<polygon id="_x3E_plus" class="st44" points="476.949,26.858 472.338,26.858 472.338,22.318 470.338,22.318 470.338,26.858 
		465.86,26.858 465.86,28.858 470.338,28.858 470.338,33.363 472.338,33.363 472.338,28.858 476.949,28.858 	"/>
</g>
<g id="close-btn_x3E_close-btn">
	<g id="_x3E_fill">
		<circle class="st19" cx="505.607" cy="27.645" r="9.436"/>
	</g>
	<g id="_x3E_fill_x2C_cross">
		<path class="st9" d="M510.541,31.675c0.115,0.116,0.174,0.254,0.174,0.415c0,0.16-0.059,0.298-0.174,0.415
			c-0.116,0.116-0.26,0.174-0.43,0.174c-0.146,0-0.28-0.058-0.41-0.174l-4.084-4.084l-4.104,4.084
			c-0.116,0.116-0.25,0.174-0.396,0.174c-0.104,0-0.188-0.016-0.245-0.046c-0.068-0.031-0.133-0.074-0.194-0.128
			c-0.115-0.116-0.174-0.254-0.174-0.415c0-0.161,0.059-0.299,0.174-0.415l4.084-4.084l-4.084-4.095
			c-0.055-0.054-0.098-0.119-0.128-0.194c-0.03-0.075-0.046-0.153-0.046-0.235s0.016-0.16,0.046-0.235s0.073-0.144,0.128-0.205
			c0.116-0.116,0.256-0.174,0.42-0.174s0.312,0.058,0.42,0.174l4.104,4.125l4.084-4.125c0.117-0.116,0.256-0.174,0.42-0.174
			s0.304,0.058,0.42,0.174c0.056,0.061,0.097,0.129,0.123,0.205c0.027,0.076,0.041,0.153,0.041,0.235s-0.014,0.161-0.041,0.235
			c-0.027,0.075-0.067,0.14-0.123,0.194l-4.094,4.095L510.541,31.675z"/>
	</g>
</g>
<g id="traffic-visualizer_x3E_pricing-meta">
	<line class="st4" x1="816.326" y1="225.277" x2="850.062" y2="225.277"/>
	<line class="st4" x1="819.348" y1="234.482" x2="835.854" y2="234.482"/>
	<line class="st4" x1="816.326" y1="239.084" x2="839.682" y2="239.084"/>
	<polyline class="st4" points="819.348,229.879 835.854,229.879 845.062,239.089 845.412,239.084 859.275,239.084 864.388,234.482 
		879.695,234.482 	"/>
	<line class="st4" x1="846.245" y1="234.482" x2="858.922" y2="234.482"/>
	<line class="st4" x1="864.509" y1="239.084" x2="872.288" y2="239.084"/>
	<polyline class="st4" points="875.03,225.277 856.625,225.277 851.744,229.879 842.188,229.879 	"/>
	<line class="st4" x1="867.535" y1="229.879" x2="857.209" y2="229.879"/>
	<polyline class="st4" points="876.859,222.491 879.632,225.263 876.859,228.036 	"/>
	<polyline class="st4" points="881.388,231.709 884.16,234.482 881.388,237.254 	"/>
	<polyline class="st4" points="869.738,227.683 872.066,229.879 869.738,232.076 	"/>
	<polyline class="st4" points="874.965,236.888 877.293,239.084 874.965,241.281 	"/>
</g>
<g id="reset-btn_x3E_pricing-meta">
	<polyline class="st4" points="782.192,222.128 778.974,225.207 778.973,225.208 782.053,228.426 	"/>
	<path class="st4" d="M784.586,225.277c3.859,0,6.987,3.129,6.987,6.988s-3.128,6.987-6.987,6.987s-6.987-3.128-6.987-6.987"/>
</g>
<g id="lock-top_x3E_pricing-meta">
	<polyline class="st4" points="745.275,233.323 745.275,239.084 720.488,239.084 720.488,233.323 	"/>
	<line id="_x3E_dashed" class="st29" x1="720.488" y1="225.991" x2="745.459" y2="225.991"/>
	<line id="_x3E_dashed_1_" class="st29" x1="720.488" y1="230.258" x2="745.459" y2="230.258"/>
</g>
<g id="traffic-visualizer-big_x3E_traffic-vis-big">
	<line class="st40" x1="724.18" y1="271.639" x2="823.266" y2="271.639"/>
	<line class="st40" x1="718.414" y1="280.844" x2="768.168" y2="280.844"/>
	<line class="st40" x1="724.18" y1="285.446" x2="771.994" y2="285.446"/>
	<polyline class="st40" points="718.414,276.241 768.168,276.241 777.377,285.451 777.726,285.446 843.115,285.446 848.227,280.844 
		894.92,280.844 	"/>
	<line class="st40" x1="778.559" y1="280.844" x2="842.762" y2="280.844"/>
	<line class="st40" x1="848.348" y1="285.446" x2="872.393" y2="285.446"/>
	<polyline class="st40" points="884.387,271.639 829.828,271.639 824.947,276.241 774.502,276.241 	"/>
	<line class="st40" x1="863.396" y1="276.241" x2="830.412" y2="276.241"/>
	<polyline class="st40" points="886.215,268.853 888.988,271.625 886.215,274.397 	"/>
	<polyline class="st40" points="896.611,278.071 899.384,280.844 896.611,283.616 	"/>
	<polyline class="st40" points="873.725,282.674 876.497,285.446 873.725,288.219 	"/>
	<polyline class="st40" points="865.377,273.469 868.149,276.241 865.377,279.014 	"/>
</g>
<g id="xclose_x3E_xclose">
	<line class="st28" x1="545.094" y1="23.258" x2="536.32" y2="32.031"/>
	<line class="st28" x1="545.094" y1="32.031" x2="536.32" y2="23.258"/>
</g>
<g id="add-custom-server_x3E_roll-your-own">
	<polygon class="st23" points="472.469,216.006 463.082,221.426 453.694,216.006 453.694,205.167 463.082,199.747 472.469,205.167 	
		"/>
</g>
<g id="add-writable-storage_x3E_roll-your-own">
	<line class="st23" x1="495.422" y1="202.805" x2="492.417" y2="205.81"/>
	<line class="st23" x1="501.015" y1="202.805" x2="498.009" y2="205.81"/>
	<line class="st23" x1="506.608" y1="202.805" x2="503.604" y2="205.81"/>
	<line class="st23" x1="512.2" y1="202.805" x2="509.194" y2="205.81"/>
	<line class="st23" x1="495.422" y1="208.866" x2="492.417" y2="211.871"/>
	<line class="st23" x1="501.015" y1="208.866" x2="498.009" y2="211.871"/>
	<line class="st23" x1="506.608" y1="208.866" x2="503.604" y2="211.871"/>
	<line class="st23" x1="512.2" y1="208.866" x2="509.194" y2="211.871"/>
	<line class="st23" x1="495.422" y1="214.926" x2="492.417" y2="217.931"/>
	<line class="st23" x1="501.015" y1="214.926" x2="498.009" y2="217.931"/>
	<line class="st23" x1="506.608" y1="214.926" x2="503.604" y2="217.931"/>
	<line class="st23" x1="512.2" y1="214.926" x2="509.194" y2="217.931"/>
</g>
<g id="add-ssl-cert_x3E_roll-your-own">
	<polyline class="st23" points="537.186,205.362 537.186,202.073 541.547,202.073 541.547,208.635 	"/>
	<line class="st23" x1="537.186" y1="218.442" x2="537.186" y2="210.58"/>
	<line class="st23" x1="550.27" y1="215.346" x2="550.27" y2="218.442"/>
	<polyline class="st23" points="545.83,202.073 550.27,202.073 550.27,210.291 	"/>
	<polyline class="st23" points="541.547,213.695 541.547,218.442 545.908,218.442 545.908,206.377 	"/>
</g>
<g id="add-dedicated-inbound_x3E_roll-your-own">
	<line class="st23" x1="586.642" y1="204.778" x2="590.598" y2="208.735"/>
	<polyline class="st23" points="594.367,204.766 594.367,212.504 586.63,212.504 	"/>
</g>
<g id="add-dedicated-outbound_x3E_roll-your-own">
	<line class="st23" x1="640.21" y1="211.213" x2="636.253" y2="207.257"/>
	<polyline class="st23" points="640.222,203.487 632.483,203.487 632.483,211.225 	"/>
</g>
<g id="documentation-link_x3E_documentation-link">
	<line class="st25" x1="773.82" y1="315.862" x2="813.34" y2="315.862"/>
	<line class="st25" x1="773.82" y1="321.3" x2="816.722" y2="321.3"/>
	<line class="st25" x1="773.82" y1="326.735" x2="811.938" y2="326.735"/>
	<line class="st25" x1="773.82" y1="337.609" x2="813.34" y2="337.609"/>
	<line class="st25" x1="773.82" y1="332.173" x2="816.722" y2="332.173"/>
	<line class="st25" x1="720.532" y1="315.862" x2="763.434" y2="315.862"/>
	<line class="st25" x1="720.532" y1="321.3" x2="759.536" y2="321.3"/>
	<line class="st25" x1="720.532" y1="326.735" x2="763.434" y2="326.735"/>
	<line class="st25" x1="720.532" y1="337.609" x2="759.536" y2="337.609"/>
	<line class="st25" x1="720.532" y1="332.173" x2="763.434" y2="332.173"/>
</g>
<g id="uptime-link_x3E_uptime-link">
	<g id="_x3E_dark">
		<polyline id="_x3E_line" class="st3" points="723.814,375.915 739.016,370.627 755.941,381.038 770.367,368.708 787.23,378.555 
			801.041,360.618 820.34,392.61 833.465,368.44 		"/>
		<circle class="st14" cx="723.814" cy="375.914" r="2.077"/>
		<path class="st14" d="M741.08,370.403c0.125,1.141-0.697,2.166-1.838,2.291c-1.146,0.125-2.166-0.697-2.293-1.836
			c-0.124-1.145,0.699-2.168,1.838-2.297C739.93,368.44,740.955,369.26,741.08,370.403z"/>
		<circle class="st14" cx="755.941" cy="381.037" r="2.077"/>
		<circle class="st14" cx="770.367" cy="368.705" r="2.077"/>
		<circle class="st14" cx="787.231" cy="378.553" r="2.078"/>
		<circle class="st14" cx="801.041" cy="360.619" r="2.077"/>
		<circle class="st14" cx="820.34" cy="392.61" r="2.076"/>
		<circle class="st14" cx="833.464" cy="368.439" r="2.077"/>
	</g>
	<g id="_x3E_light">
		<path class="st16" d="M726.816,384.211c0.126,1.139-0.697,2.166-1.848,2.291c-1.141,0.125-2.166-0.697-2.291-1.836
			c-0.127-1.145,0.696-2.168,1.846-2.293C725.666,382.25,726.691,383.073,726.816,384.211z"/>
		<circle class="st16" cx="740.981" cy="388.506" r="2.078"/>
		<circle class="st16" cx="757.21" cy="392.575" r="2.078"/>
		<circle class="st16" cx="771.325" cy="377.424" r="2.078"/>
		<path class="st16" d="M790.643,390.571c0.125,1.141-0.688,2.168-1.838,2.291c-1.141,0.127-2.166-0.697-2.293-1.836
			c-0.125-1.145,0.698-2.168,1.839-2.293C789.492,388.608,790.517,389.428,790.643,390.571z"/>
		<circle class="st16" cx="802.412" cy="373.083" r="2.077"/>
		<circle class="st16" cx="818.583" cy="368.038" r="2.078"/>
		<circle class="st16" cx="834.766" cy="380.287" r="2.077"/>
		<polyline id="_x3E_line_1_" class="st41" points="724.753,384.44 740.98,388.506 757.209,392.575 771.326,377.422 
			788.577,390.795 802.412,373.083 818.582,368.038 834.766,380.288 		"/>
	</g>
</g>
<g id="ssl-cert_x3E_pricing-extras">
	<polyline class="st23" points="747.5,461.065 747.5,464.354 743.94,464.354 743.94,457.792 	"/>
	<line class="st23" x1="747.499" y1="447.985" x2="747.5" y2="455.846"/>
	<line class="st23" x1="736.609" y1="451" x2="736.61" y2="444.606"/>
	<polyline class="st23" points="737.721,464.356 736.611,464.356 736.61,454.93 733.131,454.93 733.131,456.965 	"/>
	<polyline class="st23" points="743.94,454.016 743.939,447.985 740.181,447.985 740.181,450.809 	"/>
	<polyline class="st23" points="747.499,444.608 751.025,444.608 751.023,452.877 	"/>
	<line class="st23" x1="736.61" y1="444.606" x2="744.744" y2="444.608"/>
	<line class="st23" x1="751.023" y1="456.252" x2="751.023" y2="464.354"/>
	<line class="st23" x1="754.8" y1="467.881" x2="743.939" y2="467.881"/>
	<polyline class="st23" points="740.181,454.016 740.181,467.881 733.131,467.881 733.131,461.458 	"/>
	<line class="st23" x1="729.075" y1="451" x2="729.076" y2="457.792"/>
	<line class="st23" x1="733.131" y1="444.608" x2="733.13" y2="451"/>
	<polyline class="st23" points="729.076,447.708 729.076,440.602 738.339,440.604 	"/>
	<line class="st23" x1="729.076" y1="461.458" x2="729.076" y2="467.881"/>
	<polyline class="st23" points="742.191,440.602 754.801,440.602 754.801,447.069 	"/>
	<line class="st23" x1="754.8" y1="451" x2="754.8" y2="464.668"/>
	<line class="st23" x1="735.367" y1="437.424" x2="747.977" y2="437.424"/>
	<line class="st23" x1="735.367" y1="471.333" x2="747.977" y2="471.333"/>
	<line class="st23" x1="758.531" y1="448.17" x2="758.531" y2="460.78"/>
	<line class="st23" x1="725.389" y1="448.17" x2="725.389" y2="460.78"/>
</g>
<g id="dedicated-inbound_x3E_pricing-extras">
	<line class="st23" x1="796.675" y1="457.684" x2="800.632" y2="461.641"/>
	<line class="st23" x1="781.398" y1="442.407" x2="793.425" y2="454.434"/>
	<line class="st23" x1="787.321" y1="453.801" x2="794.436" y2="460.917"/>
	<line class="st23" x1="782.409" y1="448.889" x2="785.028" y2="451.508"/>
	<line class="st23" x1="797.911" y1="452.971" x2="800.146" y2="455.208"/>
	<line class="st23" x1="788.12" y1="443.178" x2="795.47" y2="450.532"/>
	<polyline class="st23" points="804.401,454.536 804.401,465.411 793.526,465.411 	"/>
</g>
<g id="checkmark_x3E_checkmark">
	<path class="st44" d="M571.213,31.855l-2.971-2.983c-0.588-0.603-0.588-1.583,0-2.157c0.617-0.616,1.584-0.616,2.172,0l1.891,1.891
		l4.777-4.79c0.588-0.603,1.582-0.603,2.171,0c0.589,0.588,0.589,1.583,0,2.171l-5.869,5.869c-0.28,0.28-0.659,0.463-1.079,0.463
		S571.521,32.135,571.213,31.855z"/>
</g>
<g id="ssh-db_x3E_ssh-db_x2C_feature-icon">
	<g>
		<polyline class="st10" points="319.177,97.893 308.428,104.832 291.189,104.832 280.44,97.893 		"/>
		<polyline class="st10" points="319.177,105.497 308.428,112.436 291.189,112.436 280.44,105.497 		"/>
		<polyline class="st10" points="319.177,113.101 308.428,120.041 291.189,120.041 280.44,113.101 		"/>
		<polyline class="st10" points="319.177,120.06 308.428,127 291.189,127 280.44,120.06 		"/>
		<polyline class="st10" points="288.904,80.486 284.276,81.634 280.44,90.29 291.189,97.229 308.428,97.229 319.177,90.29 
			315.34,81.634 310.709,80.486 		"/>
		<g>
			<line class="st17" x1="292.28" y1="66.638" x2="292.28" y2="88.326"/>
			<line class="st17" x1="297.107" y1="71.109" x2="297.107" y2="91.305"/>
			<line class="st17" x1="301.939" y1="55.877" x2="301.939" y2="91.305"/>
			<line class="st17" x1="306.768" y1="68.294" x2="306.768" y2="88.326"/>
			<line class="st17" x1="292.28" y1="146.609" x2="292.28" y2="133.449"/>
			<line class="st17" x1="297.107" y1="142.14" x2="297.107" y2="133.449"/>
			<line class="st17" x1="301.939" y1="152.357" x2="301.939" y2="133.449"/>
			<line class="st17" x1="306.768" y1="144.954" x2="306.768" y2="133.449"/>
		</g>
	</g>
	<g>
		<polyline class="st38" points="319.177,97.893 308.428,104.832 291.189,104.832 280.44,97.893 		"/>
		<polyline class="st38" points="319.177,105.497 308.428,112.436 291.189,112.436 280.44,105.497 		"/>
		<polyline class="st38" points="319.177,113.101 308.428,120.041 291.189,120.041 280.44,113.101 		"/>
		<polyline class="st38" points="319.177,120.06 308.428,127 291.189,127 280.44,120.06 		"/>
		<polyline class="st38" points="288.904,80.486 284.276,81.634 280.44,90.29 291.189,97.229 308.428,97.229 319.177,90.29 
			315.34,81.634 310.709,80.486 		"/>
		<g>
			<line class="st38" x1="292.28" y1="66.638" x2="292.28" y2="88.326"/>
			<line class="st38" x1="297.107" y1="71.109" x2="297.107" y2="91.305"/>
			<line class="st38" x1="301.939" y1="55.877" x2="301.939" y2="91.305"/>
			<line class="st38" x1="306.768" y1="68.294" x2="306.768" y2="88.326"/>
			<line class="st38" x1="292.28" y1="146.609" x2="292.28" y2="133.449"/>
			<line class="st38" x1="297.107" y1="142.14" x2="297.107" y2="133.449"/>
			<line class="st38" x1="301.939" y1="152.357" x2="301.939" y2="133.449"/>
			<line class="st38" x1="306.768" y1="144.954" x2="306.768" y2="133.449"/>
		</g>
	</g>
</g>
<g id="nanobox-logo_x3E_nanobox-logo">
	<g id="_x3E_type">
		<g>
			<path class="st21" d="M711.523,577.237l8.919,12.947h0.043v-12.947h1.457v15.307h-1.63l-8.921-12.949h-0.043v12.949h-1.459
				v-15.307H711.523z"/>
			<path class="st21" d="M734.977,577.237l6.007,15.307h-1.564l-1.865-4.76h-6.968l-1.844,4.76h-1.544l6.149-15.307H734.977z
				 M737.056,586.542l-2.958-7.848l-3.062,7.848H737.056z"/>
			<path class="st21" d="M747.84,577.237l8.919,12.947h0.043v-12.947h1.457v15.307h-1.629l-8.918-12.949h-0.043v12.949h-1.459
				v-15.307H747.84z"/>
			<path class="st21" d="M764.819,581.868c0.299-0.957,0.75-1.805,1.35-2.541c0.601-0.736,1.354-1.32,2.262-1.758
				c0.908-0.436,1.962-0.654,3.162-0.654c1.201,0,2.252,0.219,3.152,0.654c0.896,0.438,1.646,1.021,2.25,1.758
				c0.602,0.738,1.051,1.584,1.352,2.541c0.3,0.957,0.449,1.965,0.449,3.021c0,1.059-0.149,2.066-0.449,3.023
				c-0.301,0.957-0.75,1.801-1.352,2.529c-0.604,0.727-1.354,1.311-2.25,1.748c-0.9,0.434-1.951,0.646-3.152,0.646
				c-1.2,0-2.254-0.219-3.162-0.646c-0.903-0.439-1.661-1.021-2.262-1.748c-0.6-0.73-1.051-1.572-1.35-2.529
				c-0.305-0.957-0.451-1.965-0.451-3.023C764.368,583.833,764.519,582.825,764.819,581.868z M766.159,587.344
				c0.221,0.809,0.562,1.529,1.028,2.166c0.464,0.637,1.062,1.146,1.786,1.531c0.729,0.387,1.604,0.58,2.615,0.58
				c1.02,0,1.883-0.193,2.605-0.58c0.721-0.385,1.312-0.895,1.775-1.531c0.468-0.637,0.811-1.357,1.029-2.166
				c0.221-0.807,0.332-1.625,0.332-2.455c0-0.844-0.111-1.664-0.332-2.465c-0.223-0.801-0.562-1.52-1.029-2.154
				c-0.465-0.635-1.059-1.146-1.775-1.533c-0.727-0.387-1.593-0.578-2.605-0.578s-1.887,0.191-2.615,0.578
				c-0.728,0.387-1.322,0.896-1.786,1.533c-0.468,0.637-0.812,1.354-1.028,2.154c-0.227,0.801-0.333,1.621-0.333,2.465
				C765.826,585.719,765.938,586.538,766.159,587.344z"/>
			<path class="st21" d="M791.402,577.237c0.644,0,1.261,0.061,1.854,0.182c0.593,0.123,1.115,0.33,1.564,0.623
				c0.451,0.293,0.812,0.678,1.083,1.156c0.271,0.479,0.403,1.076,0.403,1.791c0,0.398-0.062,0.789-0.189,1.168
				s-0.312,0.723-0.547,1.029c-0.235,0.307-0.518,0.566-0.836,0.781c-0.321,0.215-0.686,0.365-1.082,0.451v0.043
				c0.982,0.127,1.771,0.531,2.354,1.211c0.586,0.678,0.88,1.52,0.88,2.52c0,0.242-0.021,0.518-0.062,0.824
				c-0.043,0.309-0.129,0.621-0.257,0.943c-0.13,0.322-0.314,0.641-0.562,0.955c-0.242,0.314-0.563,0.588-0.975,0.824
				c-0.407,0.229-0.908,0.43-1.501,0.578c-0.594,0.145-1.306,0.227-2.133,0.227h-6.479v-15.307H791.402L791.402,577.237z
				 M791.402,583.948c0.586,0,1.093-0.068,1.521-0.205c0.428-0.135,0.785-0.32,1.071-0.557s0.501-0.512,0.644-0.826
				c0.146-0.312,0.215-0.648,0.215-1.006c0-1.916-1.147-2.873-3.448-2.873h-5.021v5.467H791.402z M791.402,591.299
				c0.543,0,1.058-0.047,1.544-0.139c0.481-0.094,0.914-0.262,1.284-0.504c0.369-0.244,0.662-0.568,0.88-0.98
				c0.215-0.402,0.318-0.918,0.318-1.527c0-0.986-0.347-1.73-1.039-2.225c-0.689-0.492-1.688-0.734-2.987-0.734h-5.021v6.105h5.021
				V591.299z"/>
			<path class="st21" d="M802.722,581.868c0.3-0.957,0.75-1.805,1.354-2.541c0.601-0.736,1.354-1.32,2.262-1.758
				c0.907-0.436,1.962-0.654,3.162-0.654s2.251,0.219,3.151,0.654c0.896,0.438,1.646,1.021,2.251,1.758
				c0.601,0.738,1.051,1.584,1.351,2.541c0.301,0.957,0.45,1.965,0.45,3.021c0,1.059-0.149,2.066-0.45,3.023
				c-0.3,0.957-0.75,1.801-1.351,2.529c-0.604,0.729-1.354,1.311-2.251,1.748c-0.9,0.434-1.951,0.646-3.151,0.646
				s-2.255-0.219-3.162-0.646c-0.907-0.439-1.661-1.021-2.262-1.748c-0.604-0.73-1.053-1.572-1.354-2.529
				c-0.301-0.957-0.45-1.965-0.45-3.023C802.271,583.833,802.421,582.825,802.722,581.868z M804.062,587.344
				c0.221,0.809,0.562,1.529,1.025,2.166s1.062,1.146,1.79,1.531c0.729,0.387,1.604,0.58,2.615,0.58s1.883-0.193,2.604-0.58
				c0.725-0.385,1.314-0.895,1.779-1.531s0.808-1.357,1.029-2.166c0.222-0.807,0.332-1.625,0.332-2.455
				c0-0.844-0.11-1.664-0.332-2.465c-0.226-0.801-0.564-1.52-1.029-2.154s-1.058-1.146-1.779-1.533
				c-0.721-0.387-1.59-0.578-2.604-0.578c-1.015,0-1.888,0.191-2.615,0.578s-1.326,0.896-1.79,1.533
				c-0.465,0.637-0.809,1.354-1.025,2.154c-0.226,0.801-0.332,1.621-0.332,2.465C803.729,585.719,803.84,586.538,804.062,587.344z"
				/>
			<path class="st21" d="M823.066,577.237l4.33,6.41l4.479-6.41h1.629l-5.229,7.461l5.527,7.846h-1.758l-4.648-6.752l-4.721,6.752
				h-1.629l5.488-7.889l-5.188-7.418H823.066z"/>
		</g>
	</g>
	<g id="_x3E_gray">
		<polygon class="st36" points="771.325,556.272 790.288,546.499 790.288,549.346 771.325,559.124 		"/>
		<polygon class="st36" points="771.325,549.465 790.288,539.694 790.288,542.542 771.325,552.319 		"/>
		<polygon class="st36" points="771.325,542.663 790.288,532.887 790.288,535.739 771.325,545.512 		"/>
		<polygon class="st36" points="771.325,535.858 790.288,526.083 790.288,528.932 771.325,538.708 		"/>
	</g>
	<g id="_x3E_white">
		<polygon class="st19" points="771.325,556.272 752.362,546.499 752.362,549.346 771.325,559.124 		"/>
		<polygon class="st19" points="771.325,549.465 752.362,539.694 752.362,542.542 771.325,552.319 		"/>
		<polygon class="st19" points="771.325,542.663 752.362,532.887 752.362,535.739 771.325,545.512 		"/>
		<polygon class="st19" points="790.288,526.083 771.325,535.858 752.362,526.083 771.325,516.307 		"/>
		<polygon class="st19" points="771.325,535.858 752.362,526.083 752.362,528.932 771.325,538.708 		"/>
	</g>
</g>
<g id="tri-warning_x3E_tri-warning">
	<path id="_x3E_triangle" class="st18" d="M719.146,659.202c-2.201,0-3.104-1.561-2-3.465l12.961-22.447c1.1-1.906,2.896-1.906,4,0
		l12.961,22.447c1.1,1.904,0.196,3.465-2,3.465H719.146z"/>
	<rect id="_x3E_fill_2_" x="730.839" y="639.083" class="st39" width="2.536" height="11.318"/>
	<circle id="_x3E_fill_3_" class="st39" cx="732.108" cy="653.687" r="1.589"/>
</g>
</svg>
